<svg version="1.1" xmlns="http://www.w3.org/2000/svg" xmlns:xlink="http://www.w3.org/1999/xlink" width="1580" height="1044"><defs/><g><g transform="translate(-94,-94) scale(1,1)"><path fill="#e64949" stroke="none" d="M 720 208 L 859.6455078125 208 L 869.6455078125 218 L 869.6455078125 295 L 720 295 L 720 208"/></g><g transform="translate(-94,-94) scale(1,1)"><path fill="none" stroke="#000000" d="M 720 208 L 859.6455078125 208 L 869.6455078125 218 L 869.6455078125 295 L 720 295 L 720 208 L 720 208" stroke-miterlimit="10"/></g><g transform="translate(-94,-94) scale(1,1)"><path fill="none" stroke="#000000" d="M 859.6455078125 208 L 859.6455078125 218 L 869.6455078125 218 L 859.6455078125 208" stroke-miterlimit="10"/></g><g transform="translate(-94,-94) scale(1,1)"><g><path fill="none" stroke="none"/><text fill="#ffffff" stroke="none" font-family="Arial" font-size="15px" font-style="normal" font-weight="normal" text-decoration="none" x="725" y="228">Администраторите</text><text fill="#ffffff" stroke="none" font-family="Arial" font-size="15px" font-style="normal" font-weight="normal" text-decoration="none" x="725" y="243">създават и</text><text fill="#ffffff" stroke="none" font-family="Arial" font-size="15px" font-style="normal" font-weight="normal" text-decoration="none" x="725" y="258">управляват само</text><text fill="#ffffff" stroke="none" font-family="Arial" font-size="15px" font-style="normal" font-weight="normal" text-decoration="none" x="725" y="273">собственици на</text><text fill="#ffffff" stroke="none" font-family="Arial" font-size="15px" font-style="normal" font-weight="normal" text-decoration="none" x="725" y="288">хотел(и).</text></g></g><g transform="translate(-94,-94) scale(1,1)"><path fill="#5aadd7" stroke="none" d="M 288 216 L 424.75244140625 216 L 434.75244140625 226 L 434.75244140625 287 L 288 287 L 288 216"/></g><g transform="translate(-94,-94) scale(1,1)"><path fill="none" stroke="#000000" d="M 288 216 L 424.75244140625 216 L 434.75244140625 226 L 434.75244140625 287 L 288 287 L 288 216 L 288 216" stroke-miterlimit="10"/></g><g transform="translate(-94,-94) scale(1,1)"><path fill="none" stroke="#000000" d="M 424.75244140625 216 L 424.75244140625 226 L 434.75244140625 226 L 424.75244140625 216" stroke-miterlimit="10"/></g><g transform="translate(-94,-94) scale(1,1)"><g><path fill="none" stroke="none"/><text fill="#ffffff" stroke="none" font-family="Arial" font-size="15px" font-style="normal" font-weight="normal" text-decoration="none" x="293" y="236">Панелни</text><text fill="#ffffff" stroke="none" font-family="Arial" font-size="15px" font-style="normal" font-weight="normal" text-decoration="none" x="293" y="251">функционалности.</text></g></g><g transform="translate(-94,-94) scale(1,1)"><path fill="#5aadd7" stroke="none" d="M 104 664 L 229 664 L 239 674 L 239 734 L 104 734 L 104 664"/></g><g transform="translate(-94,-94) scale(1,1)"><path fill="none" stroke="#000000" d="M 104 664 L 229 664 L 239 674 L 239 734 L 104 734 L 104 664 L 104 664" stroke-miterlimit="10"/></g><g transform="translate(-94,-94) scale(1,1)"><path fill="none" stroke="#000000" d="M 229 664 L 229 674 L 239 674 L 229 664" stroke-miterlimit="10"/></g><g transform="translate(-94,-94) scale(1,1)"><g><path fill="none" stroke="none"/><text fill="#ffffff" stroke="none" font-family="Arial" font-size="15px" font-style="normal" font-weight="normal" text-decoration="none" x="109" y="684">Лични данни на</text><text fill="#ffffff" stroke="none" font-family="Arial" font-size="15px" font-style="normal" font-weight="normal" text-decoration="none" x="109" y="699">клиента,</text><text fill="#ffffff" stroke="none" font-family="Arial" font-size="15px" font-style="normal" font-weight="normal" text-decoration="none" x="109" y="714">потребителско</text><text fill="#ffffff" stroke="none" font-family="Arial" font-size="15px" font-style="normal" font-weight="normal" text-decoration="none" x="109" y="729">име и парола.</text></g></g><g transform="translate(-94,-94) scale(1,1)"><path fill="#5aadd7" stroke="none" d="M 368 736 L 453.666015625 736 L 463.666015625 746 L 463.666015625 783 L 368 783 L 368 736"/></g><g transform="translate(-94,-94) scale(1,1)"><path fill="none" stroke="#000000" d="M 368 736 L 453.666015625 736 L 463.666015625 746 L 463.666015625 783 L 368 783 L 368 736 L 368 736" stroke-miterlimit="10"/></g><g transform="translate(-94,-94) scale(1,1)"><path fill="none" stroke="#000000" d="M 453.666015625 736 L 453.666015625 746 L 463.666015625 746 L 453.666015625 736" stroke-miterlimit="10"/></g><g transform="translate(-94,-94) scale(1,1)"><g><path fill="none" stroke="none"/><text fill="#ffffff" stroke="none" font-family="Arial" font-size="15px" font-style="normal" font-weight="normal" text-decoration="none" x="373" y="756">Валидация</text><text fill="#ffffff" stroke="none" font-family="Arial" font-size="15px" font-style="normal" font-weight="normal" text-decoration="none" x="373" y="771">на данни.</text></g></g><g transform="translate(-94,-94) scale(1,1)"><g><path fill="none" stroke="none"/><text fill="#005128" stroke="none" font-family="Arial" font-size="13px" font-style="normal" font-weight="normal" text-decoration="none" x="341" y="922">валидни</text></g></g><g transform="translate(-94,-94) scale(1,1)"><g><path fill="none" stroke="none"/><text fill="#a90000" stroke="none" font-family="Arial" font-size="13px" font-style="normal" font-weight="normal" text-decoration="none" x="389" y="866">невалидни</text></g></g><g transform="translate(-94,-94) scale(1,1)"><path fill="#5aadd7" stroke="none" d="M 408 1016 L 525 1016 L 535 1026 L 535 1079 L 408 1079 L 408 1016"/></g><g transform="translate(-94,-94) scale(1,1)"><path fill="none" stroke="#000000" d="M 408 1016 L 525 1016 L 535 1026 L 535 1079 L 408 1079 L 408 1016 L 408 1016" stroke-miterlimit="10"/></g><g transform="translate(-94,-94) scale(1,1)"><path fill="none" stroke="#000000" d="M 525 1016 L 525 1026 L 535 1026 L 525 1016" stroke-miterlimit="10"/></g><g transform="translate(-94,-94) scale(1,1)"><g><path fill="none" stroke="none"/><text fill="#ffffff" stroke="none" font-family="Arial" font-size="13px" font-style="normal" font-weight="normal" text-decoration="none" x="413" y="1034">Създаден  е</text><text fill="#ffffff" stroke="none" font-family="Arial" font-size="13px" font-style="normal" font-weight="normal" text-decoration="none" x="413" y="1047">Собственик на</text><text fill="#ffffff" stroke="none" font-family="Arial" font-size="13px" font-style="normal" font-weight="normal" text-decoration="none" x="413" y="1060">хотел.Записва се в</text><text fill="#ffffff" stroke="none" font-family="Arial" font-size="13px" font-style="normal" font-weight="normal" text-decoration="none" x="413" y="1073">база данни.</text></g></g><g transform="translate(-94,-94) scale(1,1)"><path fill="#C0C0C0" stroke="none" d="M 298 359 L 940 359 Q 943 359 943 362 L 943 361 Q 943 364 940 364 L 298 364 Q 295 364 295 361 L 295 362 Q 295 359 298 359 Z" opacity="0.2"/></g><g transform="translate(-94,-94) scale(1,1)"><path fill="#000000" stroke="none" d="M 291 352 L 933 352 Q 936 352 936 355 L 936 355 Q 936 358 933 358 L 291 358 Q 288 358 288 355 L 288 355 Q 288 352 291 352 Z"/></g><g transform="translate(-94,-94) scale(1,1)"><path fill="#C0C0C0" stroke="none" d="M 607 280.5 C 607 275.2532944 611.2532944 271 616.5 271 C 621.7467056 271 626 275.2532944 626 280.5 C 626 285.7467056 621.7467056 290 616.5 290 C 611.2532944 290 607 285.7467056 607 280.5 Z" opacity="0.2"/></g><g transform="translate(-94,-94) scale(1,1)"><path fill="#000000" stroke="none" d="M 600 273.5 C 600 268.2532944 604.2532944 264 609.5 264 C 614.7467056 264 619 268.2532944 619 273.5 C 619 278.7467056 614.7467056 283 609.5 283 C 604.2532944 283 600 278.7467056 600 273.5 Z"/></g><g transform="translate(-94,-94) scale(1,1)"><path fill="#C0C0C0" stroke="none" d="M 1369 199 L 1461 199 Q 1471 199 1471 209 L 1471 255 Q 1471 265 1461 265 L 1369 265 Q 1359 265 1359 255 L 1359 209 Q 1359 199 1369 199 Z" opacity="0.2"/></g><g transform="translate(-94,-94) scale(1,1)"><path fill="#e2e2e2" stroke="none" d="M 1362 192 L 1454 192 Q 1464 192 1464 202 L 1464 248 Q 1464 258 1454 258 L 1362 258 Q 1352 258 1352 248 L 1352 202 Q 1352 192 1362 192 Z"/></g><g transform="translate(-94,-94) scale(1,1)"><path fill="none" stroke="#000000" d="M 1362 192 L 1454 192 Q 1464 192 1464 202 L 1464 248 Q 1464 258 1454 258 L 1362 258 Q 1352 258 1352 248 L 1352 202 Q 1352 192 1362 192 Z" stroke-miterlimit="10"/></g><g transform="translate(-94,-94) scale(1,1)"><g><path fill="none" stroke="none"/><text fill="#000000" stroke="none" font-family="Arial" font-size="13px" font-style="normal" font-weight="bold" text-decoration="none" x="1365.3310546875" y="211.5">Зареждане на</text><text fill="#000000" stroke="none" font-family="Arial" font-size="13px" font-style="normal" font-weight="bold" text-decoration="none" x="1387.8779296875" y="224.5">всички</text><text fill="#000000" stroke="none" font-family="Arial" font-size="13px" font-style="normal" font-weight="bold" text-decoration="none" x="1369.79345703125" y="237.5">потребители</text></g></g><g transform="translate(-94,-94) scale(1,1)"><path fill="none" stroke="#000000" d="M 608 283 L 608 352" stroke-miterlimit="10"/></g><g transform="translate(-94,-94) scale(1,1)"><path fill="none" stroke="#000000" d="M 603.790482243984 341.83732514237585 L 608 352 L 612.209517756016 341.83732514237585" stroke-miterlimit="10"/></g><g transform="translate(-94,-94) scale(1,1)"><path fill="#C0C0C0" stroke="none" d="M 305 543 L 389 543 Q 399 543 399 553 L 399 599 Q 399 609 389 609 L 305 609 Q 295 609 295 599 L 295 553 Q 295 543 305 543 Z" opacity="0.2"/></g><g transform="translate(-94,-94) scale(1,1)"><path fill="#ffffff" stroke="none" d="M 298 536 L 382 536 Q 392 536 392 546 L 392 592 Q 392 602 382 602 L 298 602 Q 288 602 288 592 L 288 546 Q 288 536 298 536 Z"/></g><g transform="translate(-94,-94) scale(1,1)"><path fill="none" stroke="#000000" d="M 298 536 L 382 536 Q 392 536 392 546 L 392 592 Q 392 602 382 602 L 298 602 Q 288 602 288 592 L 288 546 Q 288 536 298 536 Z" stroke-miterlimit="10"/></g><g transform="translate(-94,-94) scale(1,1)"><g><path fill="none" stroke="none"/><text fill="#000000" stroke="none" font-family="Arial" font-size="13px" font-style="normal" font-weight="bold" text-decoration="none" x="297.3310546875" y="555.5">Зареждане на</text><text fill="#000000" stroke="none" font-family="Arial" font-size="13px" font-style="normal" font-weight="bold" text-decoration="none" x="300.444580078125" y="568.5">формуляр за</text><text fill="#000000" stroke="none" font-family="Arial" font-size="13px" font-style="normal" font-weight="bold" text-decoration="none" x="302.437744140625" y="581.5">регистрация</text></g></g><g transform="translate(-94,-94) scale(1,1)"><path fill="#C0C0C0" stroke="none" d="M 305 671 L 396 671 Q 406 671 406 681 L 406 701 Q 406 711 396 711 L 305 711 Q 295 711 295 701 L 295 681 Q 295 671 305 671 Z" opacity="0.2"/></g><g transform="translate(-94,-94) scale(1,1)"><path fill="#ffffff" stroke="none" d="M 298 664 L 389 664 Q 399 664 399 674 L 399 694 Q 399 704 389 704 L 298 704 Q 288 704 288 694 L 288 674 Q 288 664 298 664 Z"/></g><g transform="translate(-94,-94) scale(1,1)"><path fill="none" stroke="#000000" d="M 298 664 L 389 664 Q 399 664 399 674 L 399 694 Q 399 704 389 704 L 298 704 Q 288 704 288 694 L 288 674 Q 288 664 298 664 Z" stroke-miterlimit="10"/></g><g transform="translate(-94,-94) scale(1,1)"><g><path fill="none" stroke="none"/><text fill="#000000" stroke="none" font-family="Arial" font-size="13px" font-style="normal" font-weight="bold" text-decoration="none" x="309.219482421875" y="683.5">Въвеждане</text></g></g><g transform="translate(-94,-94) scale(1,1)"><path fill="none" stroke="#000000" d="M 336 602 L 336 664" stroke-miterlimit="10"/></g><g transform="translate(-94,-94) scale(1,1)"><path fill="none" stroke="#000000" d="M 331.790482243984 653.8373251423759 L 336 664 L 340.209517756016 653.8373251423759" stroke-miterlimit="10"/></g><g transform="translate(-94,-94) scale(1,1)"><path fill="#C0C0C0" stroke="none" d="M 311 875.5 L 339.5 847 L 367 875.5 L 339.5 903 L 311 875.5" opacity="0.2"/></g><g transform="translate(-94,-94) scale(1,1)"><path fill="#ffffff" stroke="none" d="M 304 868 L 332 840 L 360 868 L 332 896 L 304 868"/></g><g transform="translate(-94,-94) scale(1,1)"><path fill="none" stroke="#000000" d="M 304 868 L 332 840 L 360 868 L 332 896 L 304 868 L 304 868" stroke-miterlimit="10"/></g><g transform="translate(-94,-94) scale(1,1)"><path fill="#C0C0C0" stroke="none" d="M 313 951 L 389 951 Q 399 951 399 961 L 399 981 Q 399 991 389 991 L 313 991 Q 303 991 303 981 L 303 961 Q 303 951 313 951 Z" opacity="0.2"/></g><g transform="translate(-94,-94) scale(1,1)"><path fill="#ffffff" stroke="none" d="M 306 944 L 382 944 Q 392 944 392 954 L 392 974 Q 392 984 382 984 L 306 984 Q 296 984 296 974 L 296 954 Q 296 944 306 944 Z"/></g><g transform="translate(-94,-94) scale(1,1)"><path fill="none" stroke="#000000" d="M 306 944 L 382 944 Q 392 944 392 954 L 392 974 Q 392 984 382 984 L 306 984 Q 296 984 296 974 L 296 954 Q 296 944 306 944 Z" stroke-miterlimit="10"/></g><g transform="translate(-94,-94) scale(1,1)"><g><path fill="none" stroke="none"/><text fill="#000000" stroke="none" font-family="Arial" font-size="13px" font-style="normal" font-weight="bold" text-decoration="none" x="311.858642578125" y="963.5">Записване</text></g></g><g transform="translate(-94,-94) scale(1,1)"><path fill="none" stroke="#000000" d="M 336 704 L 336 840" stroke-miterlimit="10"/></g><g transform="translate(-94,-94) scale(1,1)"><path fill="none" stroke="#000000" d="M 331.790482243984 829.8373251423759 L 336 840 L 340.209517756016 829.8373251423759" stroke-miterlimit="10"/></g><g transform="translate(-94,-94) scale(1,1)"><path fill="none" stroke="#000000" d="M 336 896 L 336 944" stroke-miterlimit="10"/></g><g transform="translate(-94,-94) scale(1,1)"><path fill="none" stroke="#000000" d="M 331.790482243984 933.8373251423759 L 336 944 L 340.209517756016 933.8373251423759" stroke-miterlimit="10"/></g><g transform="translate(-94,-94) scale(1,1)"><path fill="none" stroke="#000000" d="M 360 876 L 488 876 L 488 688 L 399 688" stroke-miterlimit="10"/></g><g transform="translate(-94,-94) scale(1,1)"><path fill="none" stroke="#000000" d="M 409.16267485762415 683.790482243984 L 399 688 L 409.16267485762415 692.209517756016" stroke-miterlimit="10"/></g><g transform="translate(-94,-94) scale(1,1)"><path fill="#C0C0C0" stroke="none" d="M 327 1052.5 C 327 1045.0441552 333.715728 1039 342 1039 C 350.284272 1039 357 1045.0441552 357 1052.5 C 357 1059.9558448 350.284272 1066 342 1066 C 333.715728 1066 327 1059.9558448 327 1052.5 Z" opacity="0.2"/></g><g transform="translate(-94,-94) scale(1,1)"><path fill="#ffffff" stroke="none" d="M 320 1045.5 C 320 1038.0441552 326.715728 1032 335 1032 C 343.284272 1032 350 1038.0441552 350 1045.5 C 350 1052.9558448 343.284272 1059 335 1059 C 326.715728 1059 320 1052.9558448 320 1045.5 Z"/></g><g transform="translate(-94,-94) scale(1,1)"><path fill="none" stroke="#000000" d="M 320 1045.5 C 320 1038.0441552 326.715728 1032 335 1032 C 343.284272 1032 350 1038.0441552 350 1045.5 C 350 1052.9558448 343.284272 1059 335 1059 C 326.715728 1059 320 1052.9558448 320 1045.5 Z" stroke-miterlimit="10"/></g><g transform="translate(-94,-94) scale(1,1)"><path fill="none" stroke="#000000" d="M 324 1034 L 346 1056" stroke-miterlimit="10"/></g><g transform="translate(-94,-94) scale(1,1)"><path fill="none" stroke="#000000" d="M 346 1034 L 324 1056" stroke-miterlimit="10"/></g><g transform="translate(-94,-94) scale(1,1)"><path fill="none" stroke="#000000" d="M 336 984 L 336 1032" stroke-miterlimit="10"/></g><g transform="translate(-94,-94) scale(1,1)"><path fill="none" stroke="#000000" d="M 331.790482243984 1021.8373251423759 L 336 1032 L 340.209517756016 1021.8373251423759" stroke-miterlimit="10"/></g><g transform="translate(-94,-94) scale(1,1)"><path fill="none" stroke="#000000" d="M 408 288 L 408 352" stroke-miterlimit="10" stroke-dasharray="3"/></g><g transform="translate(-94,-94) scale(1,1)"><path fill="none" stroke="#000000" d="M 240 696 L 288 696" stroke-miterlimit="10" stroke-dasharray="3"/></g><g transform="translate(-94,-94) scale(1,1)"><path fill="none" stroke="#000000" d="M 397 785 L 355 839" stroke-miterlimit="10" stroke-dasharray="3"/></g><g transform="translate(-94,-94) scale(1,1)"><path fill="none" stroke="#000000" d="M 408 1040 L 350 1040" stroke-miterlimit="10" stroke-dasharray="3"/></g><g transform="translate(-94,-94) scale(1,1)"><path fill="none" stroke="#000000" d="M 720 272 L 619 272" stroke-miterlimit="10" stroke-dasharray="3"/></g><g transform="translate(-94,-94) scale(1,1)"><g><path fill="none" stroke="none"/><text fill="#000000" stroke="none" font-family="Arial" font-size="28px" font-style="normal" font-weight="normal" text-decoration="none" x="317" y="137">КОНТРОЛЕН ПАНЕЛ - АДМИНИСТРАТОР</text></g></g><g transform="translate(-94,-94) scale(1,1)"><path fill="#C0C0C0" stroke="none" d="M 1130 311 L 1668 311 Q 1671 311 1671 314 L 1671 313 Q 1671 316 1668 316 L 1130 316 Q 1127 316 1127 313 L 1127 314 Q 1127 311 1130 311 Z" opacity="0.2"/></g><g transform="translate(-94,-94) scale(1,1)"><path fill="#000000" stroke="none" d="M 1123 304 L 1661 304 Q 1664 304 1664 307 L 1664 307 Q 1664 310 1661 310 L 1123 310 Q 1120 310 1120 307 L 1120 307 Q 1120 304 1123 304 Z"/></g><g transform="translate(-94,-94) scale(1,1)"><path fill="none" stroke="#000000" d="M 1400 258 L 1400 304" stroke-miterlimit="10"/></g><g transform="translate(-94,-94) scale(1,1)"><path fill="none" stroke="#000000" d="M 1395.7904822439841 293.83732514237585 L 1400 304 L 1404.2095177560159 293.83732514237585" stroke-miterlimit="10"/></g><g transform="translate(-94,-94) scale(1,1)"><path fill="#5aadd7" stroke="none" d="M 1096 208 L 1232.75244140625 208 L 1242.75244140625 218 L 1242.75244140625 263 L 1096 263 L 1096 208"/></g><g transform="translate(-94,-94) scale(1,1)"><path fill="none" stroke="#000000" d="M 1096 208 L 1232.75244140625 208 L 1242.75244140625 218 L 1242.75244140625 263 L 1096 263 L 1096 208 L 1096 208" stroke-miterlimit="10"/></g><g transform="translate(-94,-94) scale(1,1)"><path fill="none" stroke="#000000" d="M 1232.75244140625 208 L 1232.75244140625 218 L 1242.75244140625 218 L 1232.75244140625 208" stroke-miterlimit="10"/></g><g transform="translate(-94,-94) scale(1,1)"><g><path fill="none" stroke="none"/><text fill="#ffffff" stroke="none" font-family="Arial" font-size="15px" font-style="normal" font-weight="normal" text-decoration="none" x="1101" y="228">Функционалности</text><text fill="#ffffff" stroke="none" font-family="Arial" font-size="15px" font-style="normal" font-weight="normal" text-decoration="none" x="1101" y="243">върху потребител.</text></g></g><g transform="translate(-94,-94) scale(1,1)"><path fill="none" stroke="#000000" d="M 1169 264 L 1169 288 L 1168 288 L 1168 304" stroke-miterlimit="10" stroke-dasharray="3"/></g><g transform="translate(-94,-94) scale(1,1)"><path fill="#C0C0C0" stroke="none" d="M 1209 367 L 1277 367 Q 1287 367 1287 377 L 1287 436 Q 1287 446 1277 446 L 1209 446 Q 1199 446 1199 436 L 1199 377 Q 1199 367 1209 367 Z" opacity="0.2"/></g><g transform="translate(-94,-94) scale(1,1)"><path fill="#ffffff" stroke="none" d="M 1202 360 L 1270 360 Q 1280 360 1280 370 L 1280 429 Q 1280 439 1270 439 L 1202 439 Q 1192 439 1192 429 L 1192 370 Q 1192 360 1202 360 Z"/></g><g transform="translate(-94,-94) scale(1,1)"><path fill="none" stroke="#000000" d="M 1202 360 L 1270 360 Q 1280 360 1280 370 L 1280 429 Q 1280 439 1270 439 L 1202 439 Q 1192 439 1192 429 L 1192 370 Q 1192 360 1202 360 Z" stroke-miterlimit="10"/></g><g transform="translate(-94,-94) scale(1,1)"><g><path fill="none" stroke="none"/><text fill="#000000" stroke="none" font-family="Arial" font-size="13px" font-style="normal" font-weight="bold" text-decoration="none" x="1200.38330078125" y="379.5">Използване</text><text fill="#000000" stroke="none" font-family="Arial" font-size="13px" font-style="normal" font-weight="bold" text-decoration="none" x="1228.79541015625" y="392.5">на</text><text fill="#000000" stroke="none" font-family="Arial" font-size="13px" font-style="normal" font-weight="bold" text-decoration="none" x="1203.649169921875" y="405.5">функцията</text><text fill="#000000" stroke="none" font-family="Arial" font-size="13px" font-style="normal" font-weight="bold" text-decoration="none" x="1224.799560546875" y="418.5">Edit</text></g></g><g transform="translate(-94,-94) scale(1,1)"><path fill="none" stroke="#000000" d="M 1232 309 L 1232 360" stroke-miterlimit="10"/></g><g transform="translate(-94,-94) scale(1,1)"><path fill="none" stroke="#000000" d="M 1227.7904822439841 349.83732514237585 L 1232 360 L 1236.2095177560159 349.83732514237585" stroke-miterlimit="10"/></g><g transform="translate(-94,-94) scale(1,1)"><path fill="#5aadd7" stroke="none" d="M 1024 352 L 1117 352 L 1127 362 L 1127 431 L 1024 431 L 1024 352"/></g><g transform="translate(-94,-94) scale(1,1)"><path fill="none" stroke="#000000" d="M 1024 352 L 1117 352 L 1127 362 L 1127 431 L 1024 431 L 1024 352 L 1024 352" stroke-miterlimit="10"/></g><g transform="translate(-94,-94) scale(1,1)"><path fill="none" stroke="#000000" d="M 1117 352 L 1117 362 L 1127 362 L 1117 352" stroke-miterlimit="10"/></g><g transform="translate(-94,-94) scale(1,1)"><g><path fill="none" stroke="none"/><text fill="#ffffff" stroke="none" font-family="Arial" font-size="15px" font-style="normal" font-weight="normal" text-decoration="none" x="1029" y="372">Промяна</text><text fill="#ffffff" stroke="none" font-family="Arial" font-size="15px" font-style="normal" font-weight="normal" text-decoration="none" x="1029" y="387">върху</text><text fill="#ffffff" stroke="none" font-family="Arial" font-size="15px" font-style="normal" font-weight="normal" text-decoration="none" x="1029" y="402">потребител.</text></g></g><g transform="translate(-94,-94) scale(1,1)"><path fill="none" stroke="#000000" d="M 1128 406 L 1192 406" stroke-miterlimit="10" stroke-dasharray="3"/></g><g transform="translate(-94,-94) scale(1,1)"><path fill="#C0C0C0" stroke="none" d="M 1201 503 L 1277 503 Q 1287 503 1287 513 L 1287 533 Q 1287 543 1277 543 L 1201 543 Q 1191 543 1191 533 L 1191 513 Q 1191 503 1201 503 Z" opacity="0.2"/></g><g transform="translate(-94,-94) scale(1,1)"><path fill="#ffffff" stroke="none" d="M 1194 496 L 1270 496 Q 1280 496 1280 506 L 1280 526 Q 1280 536 1270 536 L 1194 536 Q 1184 536 1184 526 L 1184 506 Q 1184 496 1194 496 Z"/></g><g transform="translate(-94,-94) scale(1,1)"><path fill="none" stroke="#000000" d="M 1194 496 L 1270 496 Q 1280 496 1280 506 L 1280 526 Q 1280 536 1270 536 L 1194 536 Q 1184 536 1184 526 L 1184 506 Q 1184 496 1194 496 Z" stroke-miterlimit="10"/></g><g transform="translate(-94,-94) scale(1,1)"><g><path fill="none" stroke="none"/><text fill="#000000" stroke="none" font-family="Arial" font-size="13px" font-style="normal" font-weight="bold" text-decoration="none" x="1198.341552734375" y="515.5">Зареждане</text></g></g><g transform="translate(-94,-94) scale(1,1)"><path fill="none" stroke="#000000" d="M 1229 439 L 1229 496" stroke-miterlimit="10"/></g><g transform="translate(-94,-94) scale(1,1)"><path fill="none" stroke="#000000" d="M 1224.7904822439841 485.83732514237585 L 1229 496 L 1233.2095177560159 485.83732514237585" stroke-miterlimit="10"/></g><g transform="translate(-94,-94) scale(1,1)"><path fill="#5aadd7" stroke="none" d="M 1024 488 L 1136.47998046875 488 L 1146.47998046875 498 L 1146.47998046875 567 L 1024 567 L 1024 488"/></g><g transform="translate(-94,-94) scale(1,1)"><path fill="none" stroke="#000000" d="M 1024 488 L 1136.47998046875 488 L 1146.47998046875 498 L 1146.47998046875 567 L 1024 567 L 1024 488 L 1024 488" stroke-miterlimit="10"/></g><g transform="translate(-94,-94) scale(1,1)"><path fill="none" stroke="#000000" d="M 1136.47998046875 488 L 1136.47998046875 498 L 1146.47998046875 498 L 1136.47998046875 488" stroke-miterlimit="10"/></g><g transform="translate(-94,-94) scale(1,1)"><g><path fill="none" stroke="none"/><text fill="#ffffff" stroke="none" font-family="Arial" font-size="15px" font-style="normal" font-weight="normal" text-decoration="none" x="1029" y="508">Зарежда се</text><text fill="#ffffff" stroke="none" font-family="Arial" font-size="15px" font-style="normal" font-weight="normal" text-decoration="none" x="1029" y="523">информацията</text><text fill="#ffffff" stroke="none" font-family="Arial" font-size="15px" font-style="normal" font-weight="normal" text-decoration="none" x="1029" y="538">за текущия</text><text fill="#ffffff" stroke="none" font-family="Arial" font-size="15px" font-style="normal" font-weight="normal" text-decoration="none" x="1029" y="553">потребител.</text></g></g><g transform="translate(-94,-94) scale(1,1)"><path fill="none" stroke="#000000" d="M 1147 512 L 1184 512" stroke-miterlimit="10" stroke-dasharray="3"/></g><g transform="translate(-94,-94) scale(1,1)"><path fill="#C0C0C0" stroke="none" d="M 1201 655 L 1285 655 Q 1295 655 1295 665 L 1295 711 Q 1295 721 1285 721 L 1201 721 Q 1191 721 1191 711 L 1191 665 Q 1191 655 1201 655 Z" opacity="0.2"/></g><g transform="translate(-94,-94) scale(1,1)"><path fill="#ffffff" stroke="none" d="M 1194 648 L 1278 648 Q 1288 648 1288 658 L 1288 704 Q 1288 714 1278 714 L 1194 714 Q 1184 714 1184 704 L 1184 658 Q 1184 648 1194 648 Z"/></g><g transform="translate(-94,-94) scale(1,1)"><path fill="none" stroke="#000000" d="M 1194 648 L 1278 648 Q 1288 648 1288 658 L 1288 704 Q 1288 714 1278 714 L 1194 714 Q 1184 714 1184 704 L 1184 658 Q 1184 648 1194 648 Z" stroke-miterlimit="10"/></g><g transform="translate(-94,-94) scale(1,1)"><g><path fill="none" stroke="none"/><text fill="#000000" stroke="none" font-family="Arial" font-size="13px" font-style="normal" font-weight="bold" text-decoration="none" x="1192.708984375" y="667.5">Въвеждане на</text><text fill="#000000" stroke="none" font-family="Arial" font-size="13px" font-style="normal" font-weight="bold" text-decoration="none" x="1221.71142578125" y="680.5">нови</text><text fill="#000000" stroke="none" font-family="Arial" font-size="13px" font-style="normal" font-weight="bold" text-decoration="none" x="1205.53759765625" y="693.5">стойности</text></g></g><g transform="translate(-94,-94) scale(1,1)"><path fill="none" stroke="#000000" d="M 1232 536 L 1232 648" stroke-miterlimit="10"/></g><g transform="translate(-94,-94) scale(1,1)"><path fill="none" stroke="#000000" d="M 1227.7904822439841 637.8373251423759 L 1232 648 L 1236.2095177560159 637.8373251423759" stroke-miterlimit="10"/></g><g transform="translate(-94,-94) scale(1,1)"><path fill="#C0C0C0" stroke="none" d="M 1215 860 L 1243.5 831 L 1271 860 L 1243.5 888 L 1215 860" opacity="0.2"/></g><g transform="translate(-94,-94) scale(1,1)"><path fill="#ffffff" stroke="none" d="M 1208 852.5 L 1236 824 L 1264 852.5 L 1236 881 L 1208 852.5"/></g><g transform="translate(-94,-94) scale(1,1)"><path fill="none" stroke="#000000" d="M 1208 852.5 L 1236 824 L 1264 852.5 L 1236 881 L 1208 852.5 L 1208 852.5" stroke-miterlimit="10"/></g><g transform="translate(-94,-94) scale(1,1)"><path fill="none" stroke="#000000" d="M 1236 714 L 1236 824" stroke-miterlimit="10"/></g><g transform="translate(-94,-94) scale(1,1)"><path fill="none" stroke="#000000" d="M 1231.7904822439841 813.8373251423759 L 1236 824 L 1240.2095177560159 813.8373251423759" stroke-miterlimit="10"/></g><g transform="translate(-94,-94) scale(1,1)"><path fill="none" stroke="#000000" d="M 1264 852 L 1368 852 L 1368 688 L 1288 688" stroke-miterlimit="10"/></g><g transform="translate(-94,-94) scale(1,1)"><path fill="none" stroke="#000000" d="M 1298.162674857624 683.790482243984 L 1288 688 L 1298.162674857624 692.209517756016" stroke-miterlimit="10"/></g><g transform="translate(-94,-94) scale(1,1)"><path fill="#5aadd7" stroke="none" d="M 1040 776 L 1146.0859375 776 L 1156.0859375 786 L 1156.0859375 846 L 1040 846 L 1040 776"/></g><g transform="translate(-94,-94) scale(1,1)"><path fill="none" stroke="#000000" d="M 1040 776 L 1146.0859375 776 L 1156.0859375 786 L 1156.0859375 846 L 1040 846 L 1040 776 L 1040 776" stroke-miterlimit="10"/></g><g transform="translate(-94,-94) scale(1,1)"><path fill="none" stroke="#000000" d="M 1146.0859375 776 L 1146.0859375 786 L 1156.0859375 786 L 1146.0859375 776" stroke-miterlimit="10"/></g><g transform="translate(-94,-94) scale(1,1)"><g><path fill="none" stroke="none"/><text fill="#ffffff" stroke="none" font-family="Arial" font-size="15px" font-style="normal" font-weight="normal" text-decoration="none" x="1045" y="796">Валидация на</text><text fill="#ffffff" stroke="none" font-family="Arial" font-size="15px" font-style="normal" font-weight="normal" text-decoration="none" x="1045" y="811">новъведените</text><text fill="#ffffff" stroke="none" font-family="Arial" font-size="15px" font-style="normal" font-weight="normal" text-decoration="none" x="1045" y="826">данни.</text></g></g><g transform="translate(-94,-94) scale(1,1)"><path fill="none" stroke="#000000" d="M 1158 829 L 1207 843" stroke-miterlimit="10" stroke-dasharray="3"/></g><g transform="translate(-94,-94) scale(1,1)"><g><path fill="none" stroke="none"/><text fill="#a90a0a" stroke="none" font-family="Arial" font-size="13px" font-style="normal" font-weight="normal" text-decoration="none" x="1285" y="834">невалидни</text></g></g><g transform="translate(-94,-94) scale(1,1)"><path fill="#C0C0C0" stroke="none" d="M 1209 943 L 1285 943 Q 1295 943 1295 953 L 1295 973 Q 1295 983 1285 983 L 1209 983 Q 1199 983 1199 973 L 1199 953 Q 1199 943 1209 943 Z" opacity="0.2"/></g><g transform="translate(-94,-94) scale(1,1)"><path fill="#ffffff" stroke="none" d="M 1202 936 L 1278 936 Q 1288 936 1288 946 L 1288 966 Q 1288 976 1278 976 L 1202 976 Q 1192 976 1192 966 L 1192 946 Q 1192 936 1202 936 Z"/></g><g transform="translate(-94,-94) scale(1,1)"><path fill="none" stroke="#000000" d="M 1202 936 L 1278 936 Q 1288 936 1288 946 L 1288 966 Q 1288 976 1278 976 L 1202 976 Q 1192 976 1192 966 L 1192 946 Q 1192 936 1202 936 Z" stroke-miterlimit="10"/></g><g transform="translate(-94,-94) scale(1,1)"><g><path fill="none" stroke="none"/><text fill="#000000" stroke="none" font-family="Arial" font-size="13px" font-style="normal" font-weight="bold" text-decoration="none" x="1208.21728515625" y="955.5">Запазване</text></g></g><g transform="translate(-94,-94) scale(1,1)"><path fill="none" stroke="#000000" d="M 1237 881 L 1237 936" stroke-miterlimit="10"/></g><g transform="translate(-94,-94) scale(1,1)"><path fill="none" stroke="#000000" d="M 1232.7904822439841 925.8373251423759 L 1237 936 L 1241.2095177560159 925.8373251423759" stroke-miterlimit="10"/></g><g transform="translate(-94,-94) scale(1,1)"><g><path fill="none" stroke="none"/><text fill="#006231" stroke="none" font-family="Arial" font-size="13px" font-style="normal" font-weight="normal" text-decoration="none" x="1253" y="906">валидни</text></g></g><g transform="translate(-94,-94) scale(1,1)"><path fill="#5aadd7" stroke="none" d="M 1048 944 L 1160.47998046875 944 L 1170.47998046875 954 L 1170.47998046875 1007 L 1048 1007 L 1048 944"/></g><g transform="translate(-94,-94) scale(1,1)"><path fill="none" stroke="#000000" d="M 1048 944 L 1160.47998046875 944 L 1170.47998046875 954 L 1170.47998046875 1007 L 1048 1007 L 1048 944 L 1048 944" stroke-miterlimit="10"/></g><g transform="translate(-94,-94) scale(1,1)"><path fill="none" stroke="#000000" d="M 1160.47998046875 944 L 1160.47998046875 954 L 1170.47998046875 954 L 1160.47998046875 944" stroke-miterlimit="10"/></g><g transform="translate(-94,-94) scale(1,1)"><g><path fill="none" stroke="none"/><text fill="#ffffff" stroke="none" font-family="Arial" font-size="15px" font-style="normal" font-weight="normal" text-decoration="none" x="1053" y="964">UPDATE  в база</text><text fill="#ffffff" stroke="none" font-family="Arial" font-size="15px" font-style="normal" font-weight="normal" text-decoration="none" x="1053" y="979">данни за</text><text fill="#ffffff" stroke="none" font-family="Arial" font-size="15px" font-style="normal" font-weight="normal" text-decoration="none" x="1053" y="994">потребителя.</text></g></g><g transform="translate(-94,-94) scale(1,1)"><path fill="none" stroke="#000000" d="M 1172 966 L 1191 963" stroke-miterlimit="10" stroke-dasharray="3"/></g><g transform="translate(-94,-94) scale(1,1)"><path fill="#C0C0C0" stroke="none" d="M 1447 1027.5 C 1447 1020.59644 1452.59644 1015 1459.5 1015 C 1466.40356 1015 1472 1020.59644 1472 1027.5 C 1472 1034.40356 1466.40356 1040 1459.5 1040 C 1452.59644 1040 1447 1034.40356 1447 1027.5 Z" opacity="0.2"/></g><g transform="translate(-94,-94) scale(1,1)"><path fill="#ffffff" stroke="none" d="M 1440 1020.5 C 1440 1013.59644 1445.59644 1008 1452.5 1008 C 1459.40356 1008 1465 1013.59644 1465 1020.5 C 1465 1027.40356 1459.40356 1033 1452.5 1033 C 1445.59644 1033 1440 1027.40356 1440 1020.5 Z"/></g><g transform="translate(-94,-94) scale(1,1)"><path fill="none" stroke="#000000" d="M 1440 1020.5 C 1440 1013.59644 1445.59644 1008 1452.5 1008 C 1459.40356 1008 1465 1013.59644 1465 1020.5 C 1465 1027.40356 1459.40356 1033 1452.5 1033 C 1445.59644 1033 1440 1027.40356 1440 1020.5 Z" stroke-miterlimit="10"/></g><g transform="translate(-94,-94) scale(1,1)"><path fill="none" stroke="#000000" d="M 1443 1011 L 1461 1029" stroke-miterlimit="10"/></g><g transform="translate(-94,-94) scale(1,1)"><path fill="none" stroke="#000000" d="M 1461 1011 L 1443 1029" stroke-miterlimit="10"/></g><g transform="translate(-94,-94) scale(1,1)"><path fill="none" stroke="#000000" d="M 1232 976 L 1232 1024 L 1440 1024" stroke-miterlimit="10"/></g><g transform="translate(-94,-94) scale(1,1)"><path fill="none" stroke="#000000" d="M 1429.837325142376 1028.2095177560159 L 1440 1024 L 1429.837325142376 1019.790482243984" stroke-miterlimit="10"/></g><g transform="translate(-94,-94) scale(1,1)"><path fill="#5aadd7" stroke="none" d="M 1408 1064 L 1517 1064 L 1527 1074 L 1527 1127 L 1408 1127 L 1408 1064"/></g><g transform="translate(-94,-94) scale(1,1)"><path fill="none" stroke="#000000" d="M 1408 1064 L 1517 1064 L 1527 1074 L 1527 1127 L 1408 1127 L 1408 1064 L 1408 1064" stroke-miterlimit="10"/></g><g transform="translate(-94,-94) scale(1,1)"><path fill="none" stroke="#000000" d="M 1517 1064 L 1517 1074 L 1527 1074 L 1517 1064" stroke-miterlimit="10"/></g><g transform="translate(-94,-94) scale(1,1)"><g><path fill="none" stroke="none"/><text fill="#ffffff" stroke="none" font-family="Arial" font-size="15px" font-style="normal" font-weight="normal" text-decoration="none" x="1413" y="1084">Връщане към</text><text fill="#ffffff" stroke="none" font-family="Arial" font-size="15px" font-style="normal" font-weight="normal" text-decoration="none" x="1413" y="1099">панела с</text><text fill="#ffffff" stroke="none" font-family="Arial" font-size="15px" font-style="normal" font-weight="normal" text-decoration="none" x="1413" y="1114">потребители.</text></g></g><g transform="translate(-94,-94) scale(1,1)"><path fill="none" stroke="#000000" d="M 1440 1064 L 1440 1033" stroke-miterlimit="10" stroke-dasharray="3"/></g><g transform="translate(-94,-94) scale(1,1)"><path fill="#C0C0C0" stroke="none" d="M 1537 399 L 1621 399 Q 1631 399 1631 409 L 1631 469 Q 1631 479 1621 479 L 1537 479 Q 1527 479 1527 469 L 1527 409 Q 1527 399 1537 399 Z" opacity="0.2"/></g><g transform="translate(-94,-94) scale(1,1)"><path fill="#ffffff" stroke="none" d="M 1530 392 L 1614 392 Q 1624 392 1624 402 L 1624 462 Q 1624 472 1614 472 L 1530 472 Q 1520 472 1520 462 L 1520 402 Q 1520 392 1530 392 Z"/></g><g transform="translate(-94,-94) scale(1,1)"><path fill="none" stroke="#000000" d="M 1530 392 L 1614 392 Q 1624 392 1624 402 L 1624 462 Q 1624 472 1614 472 L 1530 472 Q 1520 472 1520 462 L 1520 402 Q 1520 392 1530 392 Z" stroke-miterlimit="10"/></g><g transform="translate(-94,-94) scale(1,1)"><g><path fill="none" stroke="none"/><text fill="#000000" stroke="none" font-family="Arial" font-size="13px" font-style="normal" font-weight="bold" text-decoration="none" x="1536.38330078125" y="411.5">Използване</text><text fill="#000000" stroke="none" font-family="Arial" font-size="13px" font-style="normal" font-weight="bold" text-decoration="none" x="1530.638671875" y="424.5">на функцията</text><text fill="#000000" stroke="none" font-family="Arial" font-size="13px" font-style="normal" font-weight="bold" text-decoration="none" x="1550.32275390625" y="437.5">Disable</text></g></g><g transform="translate(-94,-94) scale(1,1)"><path fill="none" stroke="#000000" d="M 1560 309 L 1560 392" stroke-miterlimit="10"/></g><g transform="translate(-94,-94) scale(1,1)"><path fill="none" stroke="#000000" d="M 1555.7904822439841 381.83732514237585 L 1560 392 L 1564.2095177560159 381.83732514237585" stroke-miterlimit="10"/></g><g transform="translate(-94,-94) scale(1,1)"><path fill="#5aadd7" stroke="none" d="M 1320 400 L 1453 400 L 1463 410 L 1463 455 L 1320 455 L 1320 400"/></g><g transform="translate(-94,-94) scale(1,1)"><path fill="none" stroke="#000000" d="M 1320 400 L 1453 400 L 1463 410 L 1463 455 L 1320 455 L 1320 400 L 1320 400" stroke-miterlimit="10"/></g><g transform="translate(-94,-94) scale(1,1)"><path fill="none" stroke="#000000" d="M 1453 400 L 1453 410 L 1463 410 L 1453 400" stroke-miterlimit="10"/></g><g transform="translate(-94,-94) scale(1,1)"><g><path fill="none" stroke="none"/><text fill="#ffffff" stroke="none" font-family="Arial" font-size="15px" font-style="normal" font-weight="normal" text-decoration="none" x="1325" y="420"> Премахване на</text><text fill="#ffffff" stroke="none" font-family="Arial" font-size="15px" font-style="normal" font-weight="normal" text-decoration="none" x="1325" y="435">потребител</text></g></g><g transform="translate(-94,-94) scale(1,1)"><path fill="none" stroke="#000000" d="M 1464 441 L 1520 441" stroke-miterlimit="10" stroke-dasharray="3"/></g><g transform="translate(-94,-94) scale(1,1)"><path fill="#C0C0C0" stroke="none" d="M 1535 579.5 L 1565 551 L 1594 579.5 L 1565 607 L 1535 579.5" opacity="0.2"/></g><g transform="translate(-94,-94) scale(1,1)"><path fill="#ffffff" stroke="none" d="M 1528 572 L 1557.5 544 L 1587 572 L 1557.5 600 L 1528 572"/></g><g transform="translate(-94,-94) scale(1,1)"><path fill="none" stroke="#000000" d="M 1528 572 L 1557.5 544 L 1587 572 L 1557.5 600 L 1528 572 L 1528 572" stroke-miterlimit="10"/></g><g transform="translate(-94,-94) scale(1,1)"><path fill="none" stroke="#000000" d="M 1560 472 L 1560 544" stroke-miterlimit="10"/></g><g transform="translate(-94,-94) scale(1,1)"><path fill="none" stroke="#000000" d="M 1555.7904822439841 533.8373251423759 L 1560 544 L 1564.2095177560159 533.8373251423759" stroke-miterlimit="10"/></g><g transform="translate(-94,-94) scale(1,1)"><path fill="#5aadd7" stroke="none" d="M 1504 648 L 1622.74951171875 648 L 1632.74951171875 658 L 1632.74951171875 703 L 1504 703 L 1504 648"/></g><g transform="translate(-94,-94) scale(1,1)"><path fill="none" stroke="#000000" d="M 1504 648 L 1622.74951171875 648 L 1632.74951171875 658 L 1632.74951171875 703 L 1504 703 L 1504 648 L 1504 648" stroke-miterlimit="10"/></g><g transform="translate(-94,-94) scale(1,1)"><path fill="none" stroke="#000000" d="M 1622.74951171875 648 L 1622.74951171875 658 L 1632.74951171875 658 L 1622.74951171875 648" stroke-miterlimit="10"/></g><g transform="translate(-94,-94) scale(1,1)"><g><path fill="none" stroke="none"/><text fill="#ffffff" stroke="none" font-family="Arial" font-size="15px" font-style="normal" font-weight="normal" text-decoration="none" x="1509" y="668">Потвърждаване</text><text fill="#ffffff" stroke="none" font-family="Arial" font-size="15px" font-style="normal" font-weight="normal" text-decoration="none" x="1509" y="683">на операцията.</text></g></g><g transform="translate(-94,-94) scale(1,1)"><path fill="none" stroke="#000000" d="M 1565 647 L 1560 601" stroke-miterlimit="10" stroke-dasharray="3"/></g><g transform="translate(-94,-94) scale(1,1)"><path fill="#C0C0C0" stroke="none" d="M 1417 799 L 1493 799 Q 1503 799 1503 809 L 1503 829 Q 1503 839 1493 839 L 1417 839 Q 1407 839 1407 829 L 1407 809 Q 1407 799 1417 799 Z" opacity="0.2"/></g><g transform="translate(-94,-94) scale(1,1)"><path fill="#ffffff" stroke="none" d="M 1410 792 L 1486 792 Q 1496 792 1496 802 L 1496 822 Q 1496 832 1486 832 L 1410 832 Q 1400 832 1400 822 L 1400 802 Q 1400 792 1410 792 Z"/></g><g transform="translate(-94,-94) scale(1,1)"><path fill="none" stroke="#000000" d="M 1410 792 L 1486 792 Q 1496 792 1496 802 L 1496 822 Q 1496 832 1486 832 L 1410 832 Q 1400 832 1400 822 L 1400 802 Q 1400 792 1410 792 Z" stroke-miterlimit="10"/></g><g transform="translate(-94,-94) scale(1,1)"><g><path fill="none" stroke="none"/><text fill="#000000" stroke="none" font-family="Arial" font-size="13px" font-style="normal" font-weight="bold" text-decoration="none" x="1416.21728515625" y="811.5">Запазване</text></g></g><g transform="translate(-94,-94) scale(1,1)"><path fill="none" stroke="#000000" d="M 1587 572 L 1656 572 L 1656 1024 L 1465 1024" stroke-miterlimit="10"/></g><g transform="translate(-94,-94) scale(1,1)"><path fill="none" stroke="#000000" d="M 1475.162674857624 1019.790482243984 L 1465 1024 L 1475.162674857624 1028.2095177560159" stroke-miterlimit="10"/></g><g transform="translate(-94,-94) scale(1,1)"><path fill="none" stroke="#000000" d="M 1528 568 L 1448 568 L 1448 792" stroke-miterlimit="10"/></g><g transform="translate(-94,-94) scale(1,1)"><path fill="none" stroke="#000000" d="M 1443.7904822439841 781.8373251423759 L 1448 792 L 1452.2095177560159 781.8373251423759" stroke-miterlimit="10"/></g><g transform="translate(-94,-94) scale(1,1)"><path fill="none" stroke="#000000" d="M 1448 832 L 1448 1008" stroke-miterlimit="10"/></g><g transform="translate(-94,-94) scale(1,1)"><path fill="none" stroke="#000000" d="M 1443.7904822439841 997.8373251423759 L 1448 1008 L 1452.2095177560159 997.8373251423759" stroke-miterlimit="10"/></g><g transform="translate(-94,-94) scale(1,1)"><g><path fill="none" stroke="none"/><text fill="#ba0000" stroke="none" font-family="Arial" font-size="13px" font-style="normal" font-weight="normal" text-decoration="none" x="1589" y="554">отхвърляне</text></g></g><g transform="translate(-94,-94) scale(1,1)"><g><path fill="none" stroke="none"/><text fill="#006a35" stroke="none" font-family="Arial" font-size="13px" font-style="normal" font-weight="normal" text-decoration="none" x="1445" y="554">потвърждение</text></g></g><g transform="translate(-94,-94) scale(1,1)"><path fill="#e64949" stroke="none" d="M 1472 848 L 1629 848 L 1639 858 L 1639 959 L 1472 959 L 1472 848"/></g><g transform="translate(-94,-94) scale(1,1)"><path fill="none" stroke="#000000" d="M 1472 848 L 1629 848 L 1639 858 L 1639 959 L 1472 959 L 1472 848 L 1472 848" stroke-miterlimit="10"/></g><g transform="translate(-94,-94) scale(1,1)"><path fill="none" stroke="#000000" d="M 1629 848 L 1629 858 L 1639 858 L 1629 848" stroke-miterlimit="10"/></g><g transform="translate(-94,-94) scale(1,1)"><g><path fill="none" stroke="none"/><text fill="#ffffff" stroke="none" font-family="Arial" font-size="15px" font-style="normal" font-weight="normal" text-decoration="none" x="1477" y="868">Премахване на</text><text fill="#ffffff" stroke="none" font-family="Arial" font-size="15px" font-style="normal" font-weight="normal" text-decoration="none" x="1477" y="883">потребител от</text><text fill="#ffffff" stroke="none" font-family="Arial" font-size="15px" font-style="normal" font-weight="normal" text-decoration="none" x="1477" y="898">системата,чрез</text><text fill="#ffffff" stroke="none" font-family="Arial" font-size="15px" font-style="normal" font-weight="normal" text-decoration="none" x="1477" y="913">UPDATE на полето</text><text fill="#ffffff" stroke="none" font-family="Arial" font-size="15px" font-style="normal" font-weight="normal" text-decoration="none" x="1477" y="928">user_state.</text></g></g><g transform="translate(-94,-94) scale(1,1)"><path fill="none" stroke="#000000" d="M 1489 847 L 1473 833" stroke-miterlimit="10" stroke-dasharray="3"/></g><g transform="translate(-94,-94) scale(1,1)"><path fill="none" stroke="#000000" d="M 664 357 L 664 424" stroke-miterlimit="10"/></g><g transform="translate(-94,-94) scale(1,1)"><path fill="none" stroke="#000000" d="M 659.790482243984 413.83732514237585 L 664 424 L 668.209517756016 413.83732514237585" stroke-miterlimit="10"/></g><g transform="translate(-94,-94) scale(1,1)"><path fill="#C0C0C0" stroke="none" d="M 553 671 L 645 671 Q 655 671 655 681 L 655 701 Q 655 711 645 711 L 553 711 Q 543 711 543 701 L 543 681 Q 543 671 553 671 Z" opacity="0.2"/></g><g transform="translate(-94,-94) scale(1,1)"><path fill="#ffffff" stroke="none" d="M 546 664 L 638 664 Q 648 664 648 674 L 648 694 Q 648 704 638 704 L 546 704 Q 536 704 536 694 L 536 674 Q 536 664 546 664 Z"/></g><g transform="translate(-94,-94) scale(1,1)"><path fill="none" stroke="#000000" d="M 546 664 L 638 664 Q 648 664 648 674 L 648 694 Q 648 704 638 704 L 546 704 Q 536 704 536 694 L 536 674 Q 536 664 546 664 Z" stroke-miterlimit="10"/></g><g transform="translate(-94,-94) scale(1,1)"><g><path fill="none" stroke="none"/><text fill="#000000" stroke="none" font-family="Arial" font-size="13px" font-style="normal" font-weight="bold" text-decoration="none" x="567.46630859375" y="683.5">Активни</text></g></g><g transform="translate(-94,-94) scale(1,1)"><path fill="#C0C0C0" stroke="none" d="M 721 671 L 813 671 Q 823 671 823 681 L 823 701 Q 823 711 813 711 L 721 711 Q 711 711 711 701 L 711 681 Q 711 671 721 671 Z" opacity="0.2"/></g><g transform="translate(-94,-94) scale(1,1)"><path fill="#ffffff" stroke="none" d="M 714 664 L 806 664 Q 816 664 816 674 L 816 694 Q 816 704 806 704 L 714 704 Q 704 704 704 694 L 704 674 Q 704 664 714 664 Z"/></g><g transform="translate(-94,-94) scale(1,1)"><path fill="none" stroke="#000000" d="M 714 664 L 806 664 Q 816 664 816 674 L 816 694 Q 816 704 806 704 L 714 704 Q 704 704 704 694 L 704 674 Q 704 664 714 664 Z" stroke-miterlimit="10"/></g><g transform="translate(-94,-94) scale(1,1)"><g><path fill="none" stroke="none"/><text fill="#000000" stroke="none" font-family="Arial" font-size="13px" font-style="normal" font-weight="bold" text-decoration="none" x="723.0947265625" y="683.5">Премахнати</text></g></g><g transform="translate(-94,-94) scale(1,1)"><path fill="#C0C0C0" stroke="none" d="M 655 586 L 683.5 559 L 711 586 L 683.5 612 L 655 586" opacity="0.2"/></g><g transform="translate(-94,-94) scale(1,1)"><path fill="#ffffff" stroke="none" d="M 648 578.5 L 676 552 L 704 578.5 L 676 605 L 648 578.5"/></g><g transform="translate(-94,-94) scale(1,1)"><path fill="none" stroke="#000000" d="M 648 578.5 L 676 552 L 704 578.5 L 676 605 L 648 578.5 L 648 578.5" stroke-miterlimit="10"/></g><g transform="translate(-94,-94) scale(1,1)"><path fill="none" stroke="#000000" d="M 648 576 L 592 576 L 592 664" stroke-miterlimit="10"/></g><g transform="translate(-94,-94) scale(1,1)"><path fill="none" stroke="#000000" d="M 587.790482243984 653.8373251423759 L 592 664 L 596.209517756016 653.8373251423759" stroke-miterlimit="10"/></g><g transform="translate(-94,-94) scale(1,1)"><path fill="none" stroke="#000000" d="M 704 576 L 760 576 L 760 664" stroke-miterlimit="10"/></g><g transform="translate(-94,-94) scale(1,1)"><path fill="none" stroke="#000000" d="M 755.790482243984 653.8373251423759 L 760 664 L 764.209517756016 653.8373251423759" stroke-miterlimit="10"/></g><g transform="translate(-94,-94) scale(1,1)"><path fill="#C0C0C0" stroke="none" d="M 633 751 L 733 751 Q 743 751 743 761 L 743 794 Q 743 804 733 804 L 633 804 Q 623 804 623 794 L 623 761 Q 623 751 633 751 Z" opacity="0.2"/></g><g transform="translate(-94,-94) scale(1,1)"><path fill="#ffffff" stroke="none" d="M 626 744 L 726 744 Q 736 744 736 754 L 736 787 Q 736 797 726 797 L 626 797 Q 616 797 616 787 L 616 754 Q 616 744 626 744 Z"/></g><g transform="translate(-94,-94) scale(1,1)"><path fill="none" stroke="#000000" d="M 626 744 L 726 744 Q 736 744 736 754 L 736 787 Q 736 797 726 797 L 626 797 Q 616 797 616 787 L 616 754 Q 616 744 626 744 Z" stroke-miterlimit="10"/></g><g transform="translate(-94,-94) scale(1,1)"><g><path fill="none" stroke="none"/><text fill="#000000" stroke="none" font-family="Arial" font-size="13px" font-style="normal" font-weight="bold" text-decoration="none" x="633.3310546875" y="763.5">Зареждане на</text><text fill="#000000" stroke="none" font-family="Arial" font-size="13px" font-style="normal" font-weight="bold" text-decoration="none" x="631.2744140625" y="776.5">потребителите</text></g></g><g transform="translate(-94,-94) scale(1,1)"><path fill="none" stroke="#000000" d="M 592 704 L 592 770 L 616 770" stroke-miterlimit="10"/></g><g transform="translate(-94,-94) scale(1,1)"><path fill="none" stroke="#000000" d="M 605.8373251423759 774.209517756016 L 616 770 L 605.8373251423758 765.790482243984" stroke-miterlimit="10"/></g><g transform="translate(-94,-94) scale(1,1)"><path fill="none" stroke="#000000" d="M 760 704 L 760 770 L 736 770" stroke-miterlimit="10"/></g><g transform="translate(-94,-94) scale(1,1)"><path fill="none" stroke="#000000" d="M 746.1626748576241 765.790482243984 L 736 770 L 746.1626748576241 774.209517756016" stroke-miterlimit="10"/></g><g transform="translate(-94,-94) scale(1,1)"><path fill="#0a743f" stroke="none" d="M 496 584 L 549 584 L 559 594 L 559 623 L 496 623 L 496 584"/></g><g transform="translate(-94,-94) scale(1,1)"><path fill="none" stroke="#000000" d="M 496 584 L 549 584 L 559 594 L 559 623 L 496 623 L 496 584 L 496 584" stroke-miterlimit="10"/></g><g transform="translate(-94,-94) scale(1,1)"><path fill="none" stroke="#000000" d="M 549 584 L 549 594 L 559 594 L 549 584" stroke-miterlimit="10"/></g><g transform="translate(-94,-94) scale(1,1)"><g><path fill="none" stroke="none"/><text fill="#ffffff" stroke="none" font-family="Arial" font-size="15px" font-style="normal" font-weight="normal" text-decoration="none" x="501" y="604">Active</text></g></g><g transform="translate(-94,-94) scale(1,1)"><path fill="#b30b0b" stroke="none" d="M 792 584 L 850.0244140625 584 L 860.0244140625 594 L 860.0244140625 623 L 792 623 L 792 584"/></g><g transform="translate(-94,-94) scale(1,1)"><path fill="none" stroke="#000000" d="M 792 584 L 850.0244140625 584 L 860.0244140625 594 L 860.0244140625 623 L 792 623 L 792 584 L 792 584" stroke-miterlimit="10"/></g><g transform="translate(-94,-94) scale(1,1)"><path fill="none" stroke="#000000" d="M 850.0244140625 584 L 850.0244140625 594 L 860.0244140625 594 L 850.0244140625 584" stroke-miterlimit="10"/></g><g transform="translate(-94,-94) scale(1,1)"><g><path fill="none" stroke="none"/><text fill="#ffffff" stroke="none" font-family="Arial" font-size="15px" font-style="normal" font-weight="normal" text-decoration="none" x="797" y="604">Disable</text></g></g><g transform="translate(-94,-94) scale(1,1)"><path fill="none" stroke="#000000" d="M 545 625 L 575 663" stroke-miterlimit="10" stroke-dasharray="3"/></g><g transform="translate(-94,-94) scale(1,1)"><path fill="none" stroke="#000000" d="M 809 625 L 777 663" stroke-miterlimit="10" stroke-dasharray="3"/></g><g transform="translate(-94,-94) scale(1,1)"><path fill="#C0C0C0" stroke="none" d="M 769 439 L 877 439 Q 887 439 887 449 L 887 485 Q 887 495 877 495 L 769 495 Q 759 495 759 485 L 759 449 Q 759 439 769 439 Z" opacity="0.2"/></g><g transform="translate(-94,-94) scale(1,1)"><path fill="#ffffff" stroke="none" d="M 762 432 L 870 432 Q 880 432 880 442 L 880 478 Q 880 488 870 488 L 762 488 Q 752 488 752 478 L 752 442 Q 752 432 762 432 Z"/></g><g transform="translate(-94,-94) scale(1,1)"><path fill="none" stroke="#000000" d="M 762 432 L 870 432 Q 880 432 880 442 L 880 478 Q 880 488 870 488 L 762 488 Q 752 488 752 478 L 752 442 Q 752 432 762 432 Z" stroke-miterlimit="10"/></g><g transform="translate(-94,-94) scale(1,1)"><g><path fill="none" stroke="none"/><text fill="#000000" stroke="none" font-family="Arial" font-size="13px" font-style="normal" font-weight="bold" text-decoration="none" x="789.65087890625" y="451.5">Изход от</text><text fill="#000000" stroke="none" font-family="Arial" font-size="13px" font-style="normal" font-weight="bold" text-decoration="none" x="765.094970703125" y="464.5">контролен панел</text></g></g><g transform="translate(-94,-94) scale(1,1)"><path fill="none" stroke="#000000" d="M 816 357 L 816 432" stroke-miterlimit="10"/></g><g transform="translate(-94,-94) scale(1,1)"><path fill="none" stroke="#000000" d="M 811.790482243984 421.83732514237585 L 816 432 L 820.209517756016 421.83732514237585" stroke-miterlimit="10"/></g><g transform="translate(-94,-94) scale(1,1)"><path fill="#C0C0C0" stroke="none" d="M 935 467.5 C 935 460.59644 940.59644 455 947.5 455 C 954.40356 455 960 460.59644 960 467.5 C 960 474.40356 954.40356 480 947.5 480 C 940.59644 480 935 474.40356 935 467.5 Z" opacity="0.2"/></g><g transform="translate(-94,-94) scale(1,1)"><path fill="none" stroke="#000000" d="M 928 460.5 C 928 453.59644 933.59644 448 940.5 448 C 947.40356 448 953 453.59644 953 460.5 C 953 467.40356 947.40356 473 940.5 473 C 933.59644 473 928 467.40356 928 460.5 Z" stroke-miterlimit="10"/></g><g transform="translate(-94,-94) scale(1,1)"><path fill="#000000" stroke="none" d="M 933 460.5 C 933 456.357864 936.357864 453 940.5 453 C 944.642136 453 948 456.357864 948 460.5 C 948 464.642136 944.642136 468 940.5 468 C 936.357864 468 933 464.642136 933 460.5 Z"/></g><g transform="translate(-94,-94) scale(1,1)"><path fill="none" stroke="#000000" d="M 880 464 L 928 464" stroke-miterlimit="10"/></g><g transform="translate(-94,-94) scale(1,1)"><path fill="none" stroke="#000000" d="M 917.8373251423759 468.209517756016 L 928 464 L 917.8373251423758 459.790482243984" stroke-miterlimit="10"/></g><g transform="translate(-94,-94) scale(1,1)"><path fill="#C0C0C0" stroke="none" d="M 449 431 L 565 431 Q 575 431 575 441 L 575 487 Q 575 497 565 497 L 449 497 Q 439 497 439 487 L 439 441 Q 439 431 449 431 Z" opacity="0.2"/></g><g transform="translate(-94,-94) scale(1,1)"><path fill="#e2e2e2" stroke="none" d="M 442 424 L 558 424 Q 568 424 568 434 L 568 480 Q 568 490 558 490 L 442 490 Q 432 490 432 480 L 432 434 Q 432 424 442 424 Z"/></g><g transform="translate(-94,-94) scale(1,1)"><path fill="none" stroke="#000000" d="M 442 424 L 558 424 Q 568 424 568 434 L 568 480 Q 568 490 558 490 L 442 490 Q 432 490 432 480 L 432 434 Q 432 424 442 424 Z" stroke-miterlimit="10"/></g><g transform="translate(-94,-94) scale(1,1)"><g><path fill="none" stroke="none"/><text fill="#000000" stroke="none" font-family="Arial" font-size="13px" font-style="normal" font-weight="bold" text-decoration="none" x="457.3310546875" y="443.5">Зареждане на</text><text fill="#000000" stroke="none" font-family="Arial" font-size="13px" font-style="normal" font-weight="bold" text-decoration="none" x="479.8779296875" y="456.5">всички</text><text fill="#000000" stroke="none" font-family="Arial" font-size="13px" font-style="normal" font-weight="bold" text-decoration="none" x="461.79345703125" y="469.5">потребители</text></g></g><g transform="translate(-94,-94) scale(1,1)"><path fill="#C0C0C0" stroke="none" d="M 305 431 L 381 431 Q 391 431 391 441 L 391 487 Q 391 497 381 497 L 305 497 Q 295 497 295 487 L 295 441 Q 295 431 305 431 Z" opacity="0.2"/></g><g transform="translate(-94,-94) scale(1,1)"><path fill="#ffffff" stroke="none" d="M 298 424 L 374 424 Q 384 424 384 434 L 384 480 Q 384 490 374 490 L 298 490 Q 288 490 288 480 L 288 434 Q 288 424 298 424 Z"/></g><g transform="translate(-94,-94) scale(1,1)"><path fill="none" stroke="#000000" d="M 298 424 L 374 424 Q 384 424 384 434 L 384 480 Q 384 490 374 490 L 298 490 Q 288 490 288 480 L 288 434 Q 288 424 298 424 Z" stroke-miterlimit="10"/></g><g transform="translate(-94,-94) scale(1,1)"><g><path fill="none" stroke="none"/><text fill="#000000" stroke="none" font-family="Arial" font-size="13px" font-style="normal" font-weight="bold" text-decoration="none" x="302.798583984375" y="443.5">Създаване</text><text fill="#000000" stroke="none" font-family="Arial" font-size="13px" font-style="normal" font-weight="bold" text-decoration="none" x="328.79541015625" y="456.5">на</text><text fill="#000000" stroke="none" font-family="Arial" font-size="13px" font-style="normal" font-weight="bold" text-decoration="none" x="301.42431640625" y="469.5">потребител</text></g></g><g transform="translate(-94,-94) scale(1,1)"><path fill="#C0C0C0" stroke="none" d="M 617 431 L 733 431 Q 743 431 743 441 L 743 485 Q 743 495 733 495 L 617 495 Q 607 495 607 485 L 607 441 Q 607 431 617 431 Z" opacity="0.2"/></g><g transform="translate(-94,-94) scale(1,1)"><path fill="#ffffff" stroke="none" d="M 610 424 L 726 424 Q 736 424 736 434 L 736 478 Q 736 488 726 488 L 610 488 Q 600 488 600 478 L 600 434 Q 600 424 610 424 Z"/></g><g transform="translate(-94,-94) scale(1,1)"><path fill="none" stroke="#000000" d="M 610 424 L 726 424 Q 736 424 736 434 L 736 478 Q 736 488 726 488 L 610 488 Q 600 488 600 478 L 600 434 Q 600 424 610 424 Z" stroke-miterlimit="10"/></g><g transform="translate(-94,-94) scale(1,1)"><g><path fill="none" stroke="none"/><text fill="#000000" stroke="none" font-family="Arial" font-size="13px" font-style="normal" font-weight="bold" text-decoration="none" x="621.966796875" y="443.5">Филтриране на</text><text fill="#000000" stroke="none" font-family="Arial" font-size="13px" font-style="normal" font-weight="bold" text-decoration="none" x="629.79345703125" y="456.5">потребители</text></g></g><g transform="translate(-94,-94) scale(1,1)"><path fill="#C0C0C0" stroke="none" d="M 671 867.5 C 671 860.59644 676.59644 855 683.5 855 C 690.40356 855 696 860.59644 696 867.5 C 696 874.40356 690.40356 880 683.5 880 C 676.59644 880 671 874.40356 671 867.5 Z" opacity="0.2"/></g><g transform="translate(-94,-94) scale(1,1)"><path fill="#ffffff" stroke="none" d="M 664 860.5 C 664 853.59644 669.59644 848 676.5 848 C 683.40356 848 689 853.59644 689 860.5 C 689 867.40356 683.40356 873 676.5 873 C 669.59644 873 664 867.40356 664 860.5 Z"/></g><g transform="translate(-94,-94) scale(1,1)"><path fill="none" stroke="#000000" d="M 664 860.5 C 664 853.59644 669.59644 848 676.5 848 C 683.40356 848 689 853.59644 689 860.5 C 689 867.40356 683.40356 873 676.5 873 C 669.59644 873 664 867.40356 664 860.5 Z" stroke-miterlimit="10"/></g><g transform="translate(-94,-94) scale(1,1)"><path fill="none" stroke="#000000" d="M 667 851 L 685 869" stroke-miterlimit="10"/></g><g transform="translate(-94,-94) scale(1,1)"><path fill="none" stroke="#000000" d="M 685 851 L 667 869" stroke-miterlimit="10"/></g><g transform="translate(-94,-94) scale(1,1)"><path fill="none" stroke="#000000" d="M 676 797 L 676 848" stroke-miterlimit="10"/></g><g transform="translate(-94,-94) scale(1,1)"><path fill="none" stroke="#000000" d="M 671.790482243984 837.8373251423759 L 676 848 L 680.209517756016 837.8373251423759" stroke-miterlimit="10"/></g><g transform="translate(-94,-94) scale(1,1)"><path fill="none" stroke="#000000" d="M 672 488 L 672 552" stroke-miterlimit="10"/></g><g transform="translate(-94,-94) scale(1,1)"><path fill="none" stroke="#000000" d="M 667.790482243984 541.8373251423759 L 672 552 L 676.209517756016 541.8373251423759" stroke-miterlimit="10"/></g><g transform="translate(-94,-94) scale(1,1)"><path fill="none" stroke="#000000" d="M 496 357 L 496 424" stroke-miterlimit="10"/></g><g transform="translate(-94,-94) scale(1,1)"><path fill="none" stroke="#000000" d="M 491.790482243984 413.83732514237585 L 496 424 L 500.209517756016 413.83732514237585" stroke-miterlimit="10"/></g><g transform="translate(-94,-94) scale(1,1)"><path fill="none" stroke="#000000" d="M 336 357 L 336 424" stroke-miterlimit="10"/></g><g transform="translate(-94,-94) scale(1,1)"><path fill="none" stroke="#000000" d="M 331.790482243984 413.83732514237585 L 336 424 L 340.209517756016 413.83732514237585" stroke-miterlimit="10"/></g><g transform="translate(-94,-94) scale(1,1)"><path fill="none" stroke="#000000" d="M 337 490 L 337 536" stroke-miterlimit="10"/></g><g transform="translate(-94,-94) scale(1,1)"><path fill="none" stroke="#000000" d="M 332.790482243984 525.8373251423759 L 337 536 L 341.209517756016 525.8373251423759" stroke-miterlimit="10"/></g></g></svg>