<svg version="1.1" xmlns="http://www.w3.org/2000/svg" xmlns:xlink="http://www.w3.org/1999/xlink" width="572" height="924"><defs/><g><g transform="translate(-110,-86) scale(1,1)"><path fill="#C0C0C0" stroke="none" d="M 335 312.5 C 335 307.2532944 339.2532944 303 344.5 303 C 349.7467056 303 354 307.2532944 354 312.5 C 354 317.7467056 349.7467056 322 344.5 322 C 339.2532944 322 335 317.7467056 335 312.5 Z" opacity="0.2"/></g><g transform="translate(-110,-86) scale(1,1)"><path fill="#000000" stroke="none" d="M 328 305.5 C 328 300.2532944 332.2532944 296 337.5 296 C 342.7467056 296 347 300.2532944 347 305.5 C 347 310.7467056 342.7467056 315 337.5 315 C 332.2532944 315 328 310.7467056 328 305.5 Z"/></g><g transform="translate(-110,-86) scale(1,1)"><path fill="#e64949" stroke="none" d="M 432 224 L 637 224 L 647 234 L 647 314 L 432 314 L 432 224"/></g><g transform="translate(-110,-86) scale(1,1)"><path fill="none" stroke="#000000" d="M 432 224 L 637 224 L 647 234 L 647 314 L 432 314 L 432 224 L 432 224" stroke-miterlimit="10"/></g><g transform="translate(-110,-86) scale(1,1)"><path fill="none" stroke="#000000" d="M 637 224 L 637 234 L 647 234 L 637 224" stroke-miterlimit="10"/></g><g transform="translate(-110,-86) scale(1,1)"><g><path fill="none" stroke="none"/><text fill="#fbfbfb" stroke="none" font-family="Arial" font-size="16px" font-style="normal" font-weight="normal" text-decoration="none" x="437" y="245">Стартиране на</text><text fill="#fbfbfb" stroke="none" font-family="Arial" font-size="16px" font-style="normal" font-weight="normal" text-decoration="none" x="437" y="261">системата,като се изисква </text><text fill="#fbfbfb" stroke="none" font-family="Arial" font-size="16px" font-style="normal" font-weight="normal" text-decoration="none" x="437" y="277">да има поне един</text><text fill="#fbfbfb" stroke="none" font-family="Arial" font-size="16px" font-style="normal" font-weight="normal" text-decoration="none" x="437" y="293">регистриран потребител от</text><text fill="#fbfbfb" stroke="none" font-family="Arial" font-size="16px" font-style="normal" font-weight="normal" text-decoration="none" x="437" y="309">тип "Администратор".</text></g></g><g transform="translate(-110,-86) scale(1,1)"><path fill="none" stroke="#000000" d="M 336 296 L 336 275 L 432 275" stroke-miterlimit="10" stroke-dasharray="3"/></g><g transform="translate(-110,-86) scale(1,1)"><path fill="#ffffff" stroke="none" d="M 298 368 L 383.2685546875 368 Q 393.2685546875 368 393.2685546875 378 L 393.2685546875 424 Q 393.2685546875 434 383.2685546875 434 L 298 434 Q 288 434 288 424 L 288 378 Q 288 368 298 368 Z"/></g><g transform="translate(-110,-86) scale(1,1)"><path fill="none" stroke="#000000" d="M 298 368 L 383.2685546875 368 Q 393.2685546875 368 393.2685546875 378 L 393.2685546875 424 Q 393.2685546875 434 383.2685546875 434 L 298 434 Q 288 434 288 424 L 288 378 Q 288 368 298 368 Z" stroke-miterlimit="10"/></g><g transform="translate(-110,-86) scale(1,1)"><g><path fill="none" stroke="none"/><text fill="#000000" stroke="none" font-family="Arial" font-size="13px" font-style="normal" font-weight="bold" text-decoration="none" x="298.95556640625" y="387.5">Посочване на</text><text fill="#000000" stroke="none" font-family="Arial" font-size="13px" font-style="normal" font-weight="bold" text-decoration="none" x="296.333984375" y="400.5">потребителски</text><text fill="#000000" stroke="none" font-family="Arial" font-size="13px" font-style="normal" font-weight="bold" text-decoration="none" x="319.417236328125" y="413.5">достъп</text></g></g><g transform="translate(-110,-86) scale(1,1)"><path fill="#5aadd7" stroke="none" d="M 448 344 L 605 344 L 615 354 L 615 434 L 448 434 L 448 344"/></g><g transform="translate(-110,-86) scale(1,1)"><path fill="none" stroke="#000000" d="M 448 344 L 605 344 L 615 354 L 615 434 L 448 434 L 448 344 L 448 344" stroke-miterlimit="10"/></g><g transform="translate(-110,-86) scale(1,1)"><path fill="none" stroke="#000000" d="M 605 344 L 605 354 L 615 354 L 605 344" stroke-miterlimit="10"/></g><g transform="translate(-110,-86) scale(1,1)"><g><path fill="none" stroke="none"/><text fill="#ffffff" stroke="none" font-family="Arial" font-size="16px" font-style="normal" font-weight="normal" text-decoration="none" x="453" y="365">Администратор и</text><text fill="#ffffff" stroke="none" font-family="Arial" font-size="16px" font-style="normal" font-weight="normal" text-decoration="none" x="453" y="381">клиенти (собственик,</text><text fill="#ffffff" stroke="none" font-family="Arial" font-size="16px" font-style="normal" font-weight="normal" text-decoration="none" x="453" y="397">мениджър,</text><text fill="#ffffff" stroke="none" font-family="Arial" font-size="16px" font-style="normal" font-weight="normal" text-decoration="none" x="453" y="413">рецепционист).</text></g></g><g transform="translate(-110,-86) scale(1,1)"><path fill="none" stroke="#000000" d="M 336 315 L 336 368" stroke-miterlimit="10"/></g><g transform="translate(-110,-86) scale(1,1)"><path fill="none" stroke="#000000" d="M 331.790482243984 357.83732514237585 L 336 368 L 340.209517756016 357.83732514237585" stroke-miterlimit="10"/></g><g transform="translate(-110,-86) scale(1,1)"><path fill="#C0C0C0" stroke="none" d="M 249 551 L 334.04638671875 551 Q 344.04638671875 551 344.04638671875 561 L 344.04638671875 607 Q 344.04638671875 617 334.04638671875 617 L 249 617 Q 239 617 239 607 L 239 561 Q 239 551 249 551 Z" opacity="0.2"/></g><g transform="translate(-110,-86) scale(1,1)"><path fill="#ffffff" stroke="none" d="M 242 544 L 327.04638671875 544 Q 337.04638671875 544 337.04638671875 554 L 337.04638671875 600 Q 337.04638671875 610 327.04638671875 610 L 242 610 Q 232 610 232 600 L 232 554 Q 232 544 242 544 Z"/></g><g transform="translate(-110,-86) scale(1,1)"><path fill="none" stroke="#000000" d="M 242 544 L 327.04638671875 544 Q 337.04638671875 544 337.04638671875 554 L 337.04638671875 600 Q 337.04638671875 610 327.04638671875 610 L 242 610 Q 232 610 232 600 L 232 554 Q 232 544 242 544 Z" stroke-miterlimit="10"/></g><g transform="translate(-110,-86) scale(1,1)"><g><path fill="none" stroke="none"/><text fill="#000000" stroke="none" font-family="Arial" font-size="13px" font-style="normal" font-weight="bold" text-decoration="none" x="241.232177734375" y="563.5">Въвеждане на</text><text fill="#000000" stroke="none" font-family="Arial" font-size="13px" font-style="normal" font-weight="bold" text-decoration="none" x="240.165771484375" y="576.5">потребителско</text><text fill="#000000" stroke="none" font-family="Arial" font-size="13px" font-style="normal" font-weight="bold" text-decoration="none" x="272.80859375" y="589.5">име</text></g></g><g transform="translate(-110,-86) scale(1,1)"><path fill="#C0C0C0" stroke="none" d="M 290 495 L 404 495 Q 407 495 407 498 L 407 497 Q 407 500 404 500 L 290 500 Q 287 500 287 497 L 287 498 Q 287 495 290 495 Z" opacity="0.2"/></g><g transform="translate(-110,-86) scale(1,1)"><path fill="#000000" stroke="none" d="M 283 488 L 397 488 Q 400 488 400 491 L 400 491 Q 400 494 397 494 L 283 494 Q 280 494 280 491 L 280 491 Q 280 488 283 488 Z"/></g><g transform="translate(-110,-86) scale(1,1)"><path fill="#C0C0C0" stroke="none" d="M 369 551 L 453 551 Q 463 551 463 561 L 463 605 Q 463 615 453 615 L 369 615 Q 359 615 359 605 L 359 561 Q 359 551 369 551 Z" opacity="0.2"/></g><g transform="translate(-110,-86) scale(1,1)"><path fill="#ffffff" stroke="none" d="M 362 544 L 446 544 Q 456 544 456 554 L 456 598 Q 456 608 446 608 L 362 608 Q 352 608 352 598 L 352 554 Q 352 544 362 544 Z"/></g><g transform="translate(-110,-86) scale(1,1)"><path fill="none" stroke="#000000" d="M 362 544 L 446 544 Q 456 544 456 554 L 456 598 Q 456 608 446 608 L 362 608 Q 352 608 352 598 L 352 554 Q 352 544 362 544 Z" stroke-miterlimit="10"/></g><g transform="translate(-110,-86) scale(1,1)"><g><path fill="none" stroke="none"/><text fill="#000000" stroke="none" font-family="Arial" font-size="13px" font-style="normal" font-weight="bold" text-decoration="none" x="360.708984375" y="563.5">Въвеждане на</text><text fill="#000000" stroke="none" font-family="Arial" font-size="13px" font-style="normal" font-weight="bold" text-decoration="none" x="382.370361328125" y="576.5">парола</text></g></g><g transform="translate(-110,-86) scale(1,1)"><path fill="none" stroke="#000000" d="M 336 434 L 336 488" stroke-miterlimit="10"/></g><g transform="translate(-110,-86) scale(1,1)"><path fill="none" stroke="#000000" d="M 331.790482243984 477.83732514237585 L 336 488 L 340.209517756016 477.83732514237585" stroke-miterlimit="10"/></g><g transform="translate(-110,-86) scale(1,1)"><path fill="none" stroke="#000000" d="M 296 493 L 296 544" stroke-miterlimit="10"/></g><g transform="translate(-110,-86) scale(1,1)"><path fill="none" stroke="#000000" d="M 291.790482243984 533.8373251423759 L 296 544 L 300.209517756016 533.8373251423759" stroke-miterlimit="10"/></g><g transform="translate(-110,-86) scale(1,1)"><path fill="none" stroke="#000000" d="M 376 493 L 376 544" stroke-miterlimit="10"/></g><g transform="translate(-110,-86) scale(1,1)"><path fill="none" stroke="#000000" d="M 371.790482243984 533.8373251423759 L 376 544 L 380.209517756016 533.8373251423759" stroke-miterlimit="10"/></g><g transform="translate(-110,-86) scale(1,1)"><path fill="#C0C0C0" stroke="none" d="M 290 655 L 404 655 Q 407 655 407 658 L 407 657 Q 407 660 404 660 L 290 660 Q 287 660 287 657 L 287 658 Q 287 655 290 655 Z" opacity="0.2"/></g><g transform="translate(-110,-86) scale(1,1)"><path fill="#000000" stroke="none" d="M 283 648 L 397 648 Q 400 648 400 651 L 400 651 Q 400 654 397 654 L 283 654 Q 280 654 280 651 L 280 651 Q 280 648 283 648 Z"/></g><g transform="translate(-110,-86) scale(1,1)"><path fill="none" stroke="#000000" d="M 296 610 L 296 648" stroke-miterlimit="10"/></g><g transform="translate(-110,-86) scale(1,1)"><path fill="none" stroke="#000000" d="M 291.790482243984 637.8373251423759 L 296 648 L 300.209517756016 637.8373251423759" stroke-miterlimit="10"/></g><g transform="translate(-110,-86) scale(1,1)"><path fill="none" stroke="#000000" d="M 376 608 L 376 648" stroke-miterlimit="10"/></g><g transform="translate(-110,-86) scale(1,1)"><path fill="none" stroke="#000000" d="M 371.790482243984 637.8373251423759 L 376 648 L 380.209517756016 637.8373251423759" stroke-miterlimit="10"/></g><g transform="translate(-110,-86) scale(1,1)"><path fill="none" stroke="#000000" d="M 448 391 L 393 391" stroke-miterlimit="10" stroke-dasharray="3"/></g><g transform="translate(-110,-86) scale(1,1)"><path fill="#C0C0C0" stroke="none" d="M 311 755.5 L 343.5 727 L 375 755.5 L 343.5 783 L 311 755.5" opacity="0.2"/></g><g transform="translate(-110,-86) scale(1,1)"><path fill="#ffffff" stroke="none" d="M 304 748 L 336 720 L 368 748 L 336 776 L 304 748"/></g><g transform="translate(-110,-86) scale(1,1)"><path fill="none" stroke="#000000" d="M 304 748 L 336 720 L 368 748 L 336 776 L 304 748 L 304 748" stroke-miterlimit="10"/></g><g transform="translate(-110,-86) scale(1,1)"><path fill="none" stroke="#000000" d="M 336 653 L 336 720" stroke-miterlimit="10"/></g><g transform="translate(-110,-86) scale(1,1)"><path fill="none" stroke="#000000" d="M 331.790482243984 709.8373251423759 L 336 720 L 340.209517756016 709.8373251423759" stroke-miterlimit="10"/></g><g transform="translate(-110,-86) scale(1,1)"><path fill="#C0C0C0" stroke="none" d="M 305 847 L 381 847 Q 391 847 391 857 L 391 890 Q 391 900 381 900 L 305 900 Q 295 900 295 890 L 295 857 Q 295 847 305 847 Z" opacity="0.2"/></g><g transform="translate(-110,-86) scale(1,1)"><path fill="#ffffff" stroke="none" d="M 298 840 L 374 840 Q 384 840 384 850 L 384 883 Q 384 893 374 893 L 298 893 Q 288 893 288 883 L 288 850 Q 288 840 298 840 Z"/></g><g transform="translate(-110,-86) scale(1,1)"><path fill="none" stroke="#000000" d="M 298 840 L 374 840 Q 384 840 384 850 L 384 883 Q 384 893 374 893 L 298 893 Q 288 893 288 883 L 288 850 Q 288 840 298 840 Z" stroke-miterlimit="10"/></g><g transform="translate(-110,-86) scale(1,1)"><g><path fill="none" stroke="none"/><text fill="#000000" stroke="none" font-family="Arial" font-size="13px" font-style="normal" font-weight="bold" text-decoration="none" x="302.538330078125" y="859.5">Логване на</text><text fill="#000000" stroke="none" font-family="Arial" font-size="13px" font-style="normal" font-weight="bold" text-decoration="none" x="297.904541015625" y="872.5">потребителя</text></g></g><g transform="translate(-110,-86) scale(1,1)"><path fill="#C0C0C0" stroke="none" d="M 289 927 L 405 927 Q 415 927 415 937 L 415 997 Q 415 1007 405 1007 L 289 1007 Q 279 1007 279 997 L 279 937 Q 279 927 289 927 Z" opacity="0.2"/></g><g transform="translate(-110,-86) scale(1,1)"><path fill="#ffffff" stroke="none" d="M 282 920 L 398 920 Q 408 920 408 930 L 408 990 Q 408 1000 398 1000 L 282 1000 Q 272 1000 272 990 L 272 930 Q 272 920 282 920 Z"/></g><g transform="translate(-110,-86) scale(1,1)"><path fill="none" stroke="#000000" d="M 282 920 L 398 920 Q 408 920 408 930 L 408 990 Q 408 1000 398 1000 L 282 1000 Q 272 1000 272 990 L 272 930 Q 272 920 282 920 Z" stroke-miterlimit="10"/></g><g transform="translate(-110,-86) scale(1,1)"><g><path fill="none" stroke="none"/><text fill="#000000" stroke="none" font-family="Arial" font-size="13px" font-style="normal" font-weight="bold" text-decoration="none" x="297.3310546875" y="939.5">Зареждане на</text><text fill="#000000" stroke="none" font-family="Arial" font-size="13px" font-style="normal" font-weight="bold" text-decoration="none" x="289.094970703125" y="952.5">контролен панел</text><text fill="#000000" stroke="none" font-family="Arial" font-size="13px" font-style="normal" font-weight="bold" text-decoration="none" x="293.373291015625" y="965.5">със съответния</text><text fill="#000000" stroke="none" font-family="Arial" font-size="13px" font-style="normal" font-weight="bold" text-decoration="none" x="285.794189453125" y="978.5">контролен достъп</text></g></g><g transform="translate(-110,-86) scale(1,1)"><path fill="none" stroke="#000000" d="M 336 893 L 336 920" stroke-miterlimit="10"/></g><g transform="translate(-110,-86) scale(1,1)"><path fill="none" stroke="#000000" d="M 331.790482243984 909.8373251423759 L 336 920 L 340.209517756016 909.8373251423759" stroke-miterlimit="10"/></g><g transform="translate(-110,-86) scale(1,1)"><path fill="#C0C0C0" stroke="none" d="M 511 963.5 C 511 956.59644 516.59644 951 523.5 951 C 530.40356 951 536 956.59644 536 963.5 C 536 970.40356 530.40356 976 523.5 976 C 516.59644 976 511 970.40356 511 963.5 Z" opacity="0.2"/></g><g transform="translate(-110,-86) scale(1,1)"><path fill="none" stroke="#000000" d="M 504 956.5 C 504 949.59644 509.59644 944 516.5 944 C 523.40356 944 529 949.59644 529 956.5 C 529 963.40356 523.40356 969 516.5 969 C 509.59644 969 504 963.40356 504 956.5 Z" stroke-miterlimit="10"/></g><g transform="translate(-110,-86) scale(1,1)"><path fill="#000000" stroke="none" d="M 509 956.5 C 509 952.357864 512.357864 949 516.5 949 C 520.642136 949 524 952.357864 524 956.5 C 524 960.642136 520.642136 964 516.5 964 C 512.357864 964 509 960.642136 509 956.5 Z"/></g><g transform="translate(-110,-86) scale(1,1)"><path fill="none" stroke="#000000" d="M 408 956 L 504 956" stroke-miterlimit="10"/></g><g transform="translate(-110,-86) scale(1,1)"><path fill="none" stroke="#000000" d="M 493.83732514237585 960.209517756016 L 504 956 L 493.83732514237585 951.790482243984" stroke-miterlimit="10"/></g><g transform="translate(-110,-86) scale(1,1)"><path fill="#5aadd7" stroke="none" d="M 120 680 L 245 680 L 255 690 L 255 735 L 120 735 L 120 680"/></g><g transform="translate(-110,-86) scale(1,1)"><path fill="none" stroke="#000000" d="M 120 680 L 245 680 L 255 690 L 255 735 L 120 735 L 120 680 L 120 680" stroke-miterlimit="10"/></g><g transform="translate(-110,-86) scale(1,1)"><path fill="none" stroke="#000000" d="M 245 680 L 245 690 L 255 690 L 245 680" stroke-miterlimit="10"/></g><g transform="translate(-110,-86) scale(1,1)"><g><path fill="none" stroke="none"/><text fill="#ffffff" stroke="none" font-family="Arial" font-size="15px" font-style="normal" font-weight="normal" text-decoration="none" x="125" y="700">Валидация на</text><text fill="#ffffff" stroke="none" font-family="Arial" font-size="15px" font-style="normal" font-weight="normal" text-decoration="none" x="125" y="715">данни.</text></g></g><g transform="translate(-110,-86) scale(1,1)"><g><path fill="none" stroke="none"/><text fill="#000000" stroke="none" font-family="Arial" font-size="28px" font-style="normal" font-weight="normal" text-decoration="none" x="189" y="177">КОНТРОЛЕН ПАНЕЛ - ЛОГИН</text></g></g><g transform="translate(-110,-86) scale(1,1)"><path fill="none" stroke="#000000" d="M 337 776 L 337 840" stroke-miterlimit="10"/></g><g transform="translate(-110,-86) scale(1,1)"><path fill="none" stroke="#000000" d="M 332.790482243984 829.8373251423759 L 337 840 L 341.209517756016 829.8373251423759" stroke-miterlimit="10"/></g><g transform="translate(-110,-86) scale(1,1)"><path fill="none" stroke="#000000" d="M 368 752 L 528 752 L 528 464 L 360 464 L 360 488" stroke-miterlimit="10"/></g><g transform="translate(-110,-86) scale(1,1)"><path fill="none" stroke="#000000" d="M 355.790482243984 477.83732514237585 L 360 488 L 364.209517756016 477.83732514237585" stroke-miterlimit="10"/></g><g transform="translate(-110,-86) scale(1,1)"><g><path fill="none" stroke="none"/><text fill="#005128" stroke="none" font-family="Arial" font-size="13px" font-style="normal" font-weight="normal" text-decoration="none" x="349" y="802">валидни</text></g></g><g transform="translate(-110,-86) scale(1,1)"><g><path fill="none" stroke="none"/><text fill="#a90000" stroke="none" font-family="Arial" font-size="13px" font-style="normal" font-weight="normal" text-decoration="none" x="381" y="738">невалидни</text></g></g><g transform="translate(-110,-86) scale(1,1)"><path fill="none" stroke="#000000" d="M 257 727 L 303 739" stroke-miterlimit="10" stroke-dasharray="3"/></g></g></svg>