<svg version="1.1" xmlns="http://www.w3.org/2000/svg" xmlns:xlink="http://www.w3.org/1999/xlink" width="2605" height="1044"><defs/><g><g transform="translate(-206,-86) scale(1,1)"><g><path fill="none" stroke="none"/><text fill="#000000" stroke="none" font-family="Arial" font-size="28px" font-style="normal" font-weight="normal" text-decoration="none" x="261" y="129">КОНТРОЛЕН ПАНЕЛ - РЕЦЕПЦОИНИСТ</text></g></g><g transform="translate(-206,-86) scale(1,1)"><path fill="#C0C0C0" stroke="none" d="M 479 240.5 C 479 235.2532944 483.2532944 231 488.5 231 C 493.7467056 231 498 235.2532944 498 240.5 C 498 245.7467056 493.7467056 250 488.5 250 C 483.2532944 250 479 245.7467056 479 240.5 Z" opacity="0.2"/></g><g transform="translate(-206,-86) scale(1,1)"><path fill="#000000" stroke="none" d="M 472 233.5 C 472 228.2532944 476.2532944 224 481.5 224 C 486.7467056 224 491 228.2532944 491 233.5 C 491 238.7467056 486.7467056 243 481.5 243 C 476.2532944 243 472 238.7467056 472 233.5 Z"/></g><g transform="translate(-206,-86) scale(1,1)"><path fill="#C0C0C0" stroke="none" d="M 346 367 L 660 367 Q 663 367 663 370 L 663 369 Q 663 372 660 372 L 346 372 Q 343 372 343 369 L 343 370 Q 343 367 346 367 Z" opacity="0.2"/></g><g transform="translate(-206,-86) scale(1,1)"><path fill="#000000" stroke="none" d="M 339 360 L 653 360 Q 656 360 656 363 L 656 363 Q 656 366 653 366 L 339 366 Q 336 366 336 363 L 336 363 Q 336 360 339 360 Z"/></g><g transform="translate(-206,-86) scale(1,1)"><path fill="none" stroke="#000000" d="M 480 243 L 480 360" stroke-miterlimit="10"/></g><g transform="translate(-206,-86) scale(1,1)"><path fill="none" stroke="#000000" d="M 475.790482243984 349.83732514237585 L 480 360 L 484.209517756016 349.83732514237585" stroke-miterlimit="10"/></g><g transform="translate(-206,-86) scale(1,1)"><path fill="#e64949" stroke="none" d="M 568 200 L 698.34375 200 L 708.34375 210 L 708.34375 279 L 568 279 L 568 200"/></g><g transform="translate(-206,-86) scale(1,1)"><path fill="none" stroke="#000000" d="M 568 200 L 698.34375 200 L 708.34375 210 L 708.34375 279 L 568 279 L 568 200 L 568 200" stroke-miterlimit="10"/></g><g transform="translate(-206,-86) scale(1,1)"><path fill="none" stroke="#000000" d="M 698.34375 200 L 698.34375 210 L 708.34375 210 L 698.34375 200" stroke-miterlimit="10"/></g><g transform="translate(-206,-86) scale(1,1)"><g><path fill="none" stroke="none"/><text fill="#ffffff" stroke="none" font-family="Arial" font-size="15px" font-style="normal" font-weight="normal" text-decoration="none" x="573" y="220">Рецепционистите</text><text fill="#ffffff" stroke="none" font-family="Arial" font-size="15px" font-style="normal" font-weight="normal" text-decoration="none" x="573" y="235">имат право да</text><text fill="#ffffff" stroke="none" font-family="Arial" font-size="15px" font-style="normal" font-weight="normal" text-decoration="none" x="573" y="250">управляват само</text><text fill="#ffffff" stroke="none" font-family="Arial" font-size="15px" font-style="normal" font-weight="normal" text-decoration="none" x="573" y="265">резервации.</text></g></g><g transform="translate(-206,-86) scale(1,1)"><path fill="none" stroke="#000000" d="M 568 232 L 491 232" stroke-miterlimit="10" stroke-dasharray="3"/></g><g transform="translate(-206,-86) scale(1,1)"><path fill="#C0C0C0" stroke="none" d="M 1639 591.5 L 1663.5 567 L 1687 591.5 L 1663.5 615 L 1639 591.5" opacity="0.2"/></g><g transform="translate(-206,-86) scale(1,1)"><path fill="#ffffff" stroke="none" d="M 1632 584 L 1656 560 L 1680 584 L 1656 608 L 1632 584"/></g><g transform="translate(-206,-86) scale(1,1)"><path fill="none" stroke="#000000" d="M 1632 584 L 1656 560 L 1680 584 L 1656 608 L 1632 584 L 1632 584" stroke-miterlimit="10"/></g><g transform="translate(-206,-86) scale(1,1)"><path fill="#C0C0C0" stroke="none" d="M 1625 727 L 1703.25439453125 727 Q 1713.25439453125 727 1713.25439453125 737 L 1713.25439453125 783 Q 1713.25439453125 793 1703.25439453125 793 L 1625 793 Q 1615 793 1615 783 L 1615 737 Q 1615 727 1625 727 Z" opacity="0.2"/></g><g transform="translate(-206,-86) scale(1,1)"><path fill="#ffffff" stroke="none" d="M 1618 720 L 1696.25439453125 720 Q 1706.25439453125 720 1706.25439453125 730 L 1706.25439453125 776 Q 1706.25439453125 786 1696.25439453125 786 L 1618 786 Q 1608 786 1608 776 L 1608 730 Q 1608 720 1618 720 Z"/></g><g transform="translate(-206,-86) scale(1,1)"><path fill="none" stroke="#000000" d="M 1618 720 L 1696.25439453125 720 Q 1706.25439453125 720 1706.25439453125 730 L 1706.25439453125 776 Q 1706.25439453125 786 1696.25439453125 786 L 1618 786 Q 1608 786 1608 776 L 1608 730 Q 1608 720 1618 720 Z" stroke-miterlimit="10"/></g><g transform="translate(-206,-86) scale(1,1)"><g><path fill="none" stroke="none"/><text fill="#000000" stroke="none" font-family="Arial" font-size="13px" font-style="normal" font-weight="bold" text-decoration="none" x="1623.46875" y="739.5">Зареждане</text><text fill="#000000" stroke="none" font-family="Arial" font-size="13px" font-style="normal" font-weight="bold" text-decoration="none" x="1649.922607421875" y="752.5">на</text><text fill="#000000" stroke="none" font-family="Arial" font-size="13px" font-style="normal" font-weight="bold" text-decoration="none" x="1615.404052734375" y="765.5">резервациите</text></g></g><g transform="translate(-206,-86) scale(1,1)"><path fill="#C0C0C0" stroke="none" d="M 1537 647 L 1589 647 Q 1599 647 1599 657 L 1599 677 Q 1599 687 1589 687 L 1537 687 Q 1527 687 1527 677 L 1527 657 Q 1527 647 1537 647 Z" opacity="0.2"/></g><g transform="translate(-206,-86) scale(1,1)"><path fill="#39b878" stroke="none" d="M 1530 640 L 1582 640 Q 1592 640 1592 650 L 1592 670 Q 1592 680 1582 680 L 1530 680 Q 1520 680 1520 670 L 1520 650 Q 1520 640 1530 640 Z"/></g><g transform="translate(-206,-86) scale(1,1)"><path fill="none" stroke="#000000" d="M 1530 640 L 1582 640 Q 1592 640 1592 650 L 1592 670 Q 1592 680 1582 680 L 1530 680 Q 1520 680 1520 670 L 1520 650 Q 1520 640 1530 640 Z" stroke-miterlimit="10"/></g><g transform="translate(-206,-86) scale(1,1)"><g><path fill="none" stroke="none"/><text fill="#000000" stroke="none" font-family="Arial" font-size="13px" font-style="normal" font-weight="bold" text-decoration="none" x="1531.46630859375" y="659.5">Активни</text></g></g><g transform="translate(-206,-86) scale(1,1)"><path fill="#C0C0C0" stroke="none" d="M 1737 647 L 1776.96533203125 647 Q 1786.96533203125 647 1786.96533203125 657 L 1786.96533203125 677 Q 1786.96533203125 687 1776.96533203125 687 L 1737 687 Q 1727 687 1727 677 L 1727 657 Q 1727 647 1737 647 Z" opacity="0.2"/></g><g transform="translate(-206,-86) scale(1,1)"><path fill="#f15b5b" stroke="none" d="M 1730 640 L 1769.96533203125 640 Q 1779.96533203125 640 1779.96533203125 650 L 1779.96533203125 670 Q 1779.96533203125 680 1769.96533203125 680 L 1730 680 Q 1720 680 1720 670 L 1720 650 Q 1720 640 1730 640 Z"/></g><g transform="translate(-206,-86) scale(1,1)"><path fill="none" stroke="#000000" d="M 1730 640 L 1769.96533203125 640 Q 1779.96533203125 640 1779.96533203125 650 L 1779.96533203125 670 Q 1779.96533203125 680 1769.96533203125 680 L 1730 680 Q 1720 680 1720 670 L 1720 650 Q 1720 640 1730 640 Z" stroke-miterlimit="10"/></g><g transform="translate(-206,-86) scale(1,1)"><g><path fill="none" stroke="none"/><text fill="#000000" stroke="none" font-family="Arial" font-size="13px" font-style="normal" font-weight="bold" text-decoration="none" x="1726.51220703125" y="659.5">изтекли</text></g></g><g transform="translate(-206,-86) scale(1,1)"><path fill="none" stroke="#000000" d="M 1632 584 L 1552 584 L 1552 640" stroke-miterlimit="10"/></g><g transform="translate(-206,-86) scale(1,1)"><path fill="none" stroke="#000000" d="M 1547.7904822439841 629.8373251423759 L 1552 640 L 1556.2095177560159 629.8373251423759" stroke-miterlimit="10"/></g><g transform="translate(-206,-86) scale(1,1)"><path fill="none" stroke="#000000" d="M 1680 584 L 1752 584 L 1752 640" stroke-miterlimit="10"/></g><g transform="translate(-206,-86) scale(1,1)"><path fill="none" stroke="#000000" d="M 1747.7904822439841 629.8373251423759 L 1752 640 L 1756.2095177560159 629.8373251423759" stroke-miterlimit="10"/></g><g transform="translate(-206,-86) scale(1,1)"><path fill="#C0C0C0" stroke="none" d="M 1633 647 L 1685.90185546875 647 Q 1695.90185546875 647 1695.90185546875 657 L 1695.90185546875 677 Q 1695.90185546875 687 1685.90185546875 687 L 1633 687 Q 1623 687 1623 677 L 1623 657 Q 1623 647 1633 647 Z" opacity="0.2"/></g><g transform="translate(-206,-86) scale(1,1)"><path fill="#eaca6a" stroke="none" d="M 1626 640 L 1678.90185546875 640 Q 1688.90185546875 640 1688.90185546875 650 L 1688.90185546875 670 Q 1688.90185546875 680 1678.90185546875 680 L 1626 680 Q 1616 680 1616 670 L 1616 650 Q 1616 640 1626 640 Z"/></g><g transform="translate(-206,-86) scale(1,1)"><path fill="none" stroke="#000000" d="M 1626 640 L 1678.90185546875 640 Q 1688.90185546875 640 1688.90185546875 650 L 1688.90185546875 670 Q 1688.90185546875 680 1678.90185546875 680 L 1626 680 Q 1616 680 1616 670 L 1616 650 Q 1616 640 1626 640 Z" stroke-miterlimit="10"/></g><g transform="translate(-206,-86) scale(1,1)"><g><path fill="none" stroke="none"/><text fill="#000000" stroke="none" font-family="Arial" font-size="13px" font-style="normal" font-weight="bold" text-decoration="none" x="1622.210693359375" y="659.5">Изтичащи</text></g></g><g transform="translate(-206,-86) scale(1,1)"><path fill="none" stroke="#000000" d="M 1654 608 L 1654 640" stroke-miterlimit="10"/></g><g transform="translate(-206,-86) scale(1,1)"><path fill="none" stroke="#000000" d="M 1649.7904822439841 629.8373251423759 L 1654 640 L 1658.2095177560159 629.8373251423759" stroke-miterlimit="10"/></g><g transform="translate(-206,-86) scale(1,1)"><path fill="none" stroke="#000000" d="M 1552 680 L 1552 752 L 1608 752" stroke-miterlimit="10"/></g><g transform="translate(-206,-86) scale(1,1)"><path fill="none" stroke="#000000" d="M 1597.837325142376 756.209517756016 L 1608 752 L 1597.837325142376 747.790482243984" stroke-miterlimit="10"/></g><g transform="translate(-206,-86) scale(1,1)"><path fill="none" stroke="#000000" d="M 1752 680 L 1752 752 L 1706 752" stroke-miterlimit="10"/></g><g transform="translate(-206,-86) scale(1,1)"><path fill="none" stroke="#000000" d="M 1716.162674857624 747.790482243984 L 1706 752 L 1716.162674857624 756.209517756016" stroke-miterlimit="10"/></g><g transform="translate(-206,-86) scale(1,1)"><path fill="none" stroke="#000000" d="M 1656 680 L 1656 720" stroke-miterlimit="10"/></g><g transform="translate(-206,-86) scale(1,1)"><path fill="none" stroke="#000000" d="M 1651.7904822439841 709.8373251423759 L 1656 720 L 1660.2095177560159 709.8373251423759" stroke-miterlimit="10"/></g><g transform="translate(-206,-86) scale(1,1)"><path fill="#C0C0C0" stroke="none" d="M 1655 843.5 C 1655 836.59644 1660.59644 831 1667.5 831 C 1674.40356 831 1680 836.59644 1680 843.5 C 1680 850.40356 1674.40356 856 1667.5 856 C 1660.59644 856 1655 850.40356 1655 843.5 Z" opacity="0.2"/></g><g transform="translate(-206,-86) scale(1,1)"><path fill="#ffffff" stroke="none" d="M 1648 836.5 C 1648 829.59644 1653.59644 824 1660.5 824 C 1667.40356 824 1673 829.59644 1673 836.5 C 1673 843.40356 1667.40356 849 1660.5 849 C 1653.59644 849 1648 843.40356 1648 836.5 Z"/></g><g transform="translate(-206,-86) scale(1,1)"><path fill="none" stroke="#000000" d="M 1648 836.5 C 1648 829.59644 1653.59644 824 1660.5 824 C 1667.40356 824 1673 829.59644 1673 836.5 C 1673 843.40356 1667.40356 849 1660.5 849 C 1653.59644 849 1648 843.40356 1648 836.5 Z" stroke-miterlimit="10"/></g><g transform="translate(-206,-86) scale(1,1)"><path fill="none" stroke="#000000" d="M 1651 827 L 1669 845" stroke-miterlimit="10"/></g><g transform="translate(-206,-86) scale(1,1)"><path fill="none" stroke="#000000" d="M 1669 827 L 1651 845" stroke-miterlimit="10"/></g><g transform="translate(-206,-86) scale(1,1)"><path fill="none" stroke="#000000" d="M 1656 786 L 1656 824" stroke-miterlimit="10"/></g><g transform="translate(-206,-86) scale(1,1)"><path fill="none" stroke="#000000" d="M 1651.7904822439841 813.8373251423759 L 1656 824 L 1660.2095177560159 813.8373251423759" stroke-miterlimit="10"/></g><g transform="translate(-206,-86) scale(1,1)"><path fill="#C0C0C0" stroke="none" d="M 553 439 L 653 439 Q 663 439 663 449 L 663 492 Q 663 502 653 502 L 553 502 Q 543 502 543 492 L 543 449 Q 543 439 553 439 Z" opacity="0.2"/></g><g transform="translate(-206,-86) scale(1,1)"><path fill="#ffffff" stroke="none" d="M 546 432 L 646 432 Q 656 432 656 442 L 656 485 Q 656 495 646 495 L 546 495 Q 536 495 536 485 L 536 442 Q 536 432 546 432 Z"/></g><g transform="translate(-206,-86) scale(1,1)"><path fill="none" stroke="#000000" d="M 546 432 L 646 432 Q 656 432 656 442 L 656 485 Q 656 495 646 495 L 546 495 Q 536 495 536 485 L 536 442 Q 536 432 546 432 Z" stroke-miterlimit="10"/></g><g transform="translate(-206,-86) scale(1,1)"><g><path fill="none" stroke="none"/><text fill="#000000" stroke="none" font-family="Arial" font-size="13px" font-style="normal" font-weight="bold" text-decoration="none" x="569.65087890625" y="451.5">Изход от</text><text fill="#000000" stroke="none" font-family="Arial" font-size="13px" font-style="normal" font-weight="bold" text-decoration="none" x="545.094970703125" y="464.5">контролен панел</text></g></g><g transform="translate(-206,-86) scale(1,1)"><path fill="none" stroke="#000000" d="M 592 365 L 592 432" stroke-miterlimit="10"/></g><g transform="translate(-206,-86) scale(1,1)"><path fill="none" stroke="#000000" d="M 587.790482243984 421.83732514237585 L 592 432 L 596.209517756016 421.83732514237585" stroke-miterlimit="10"/></g><g transform="translate(-206,-86) scale(1,1)"><path fill="#C0C0C0" stroke="none" d="M 735 467.5 C 735 460.59644 740.59644 455 747.5 455 C 754.40356 455 760 460.59644 760 467.5 C 760 474.40356 754.40356 480 747.5 480 C 740.59644 480 735 474.40356 735 467.5 Z" opacity="0.2"/></g><g transform="translate(-206,-86) scale(1,1)"><path fill="none" stroke="#000000" d="M 728 460.5 C 728 453.59644 733.59644 448 740.5 448 C 747.40356 448 753 453.59644 753 460.5 C 753 467.40356 747.40356 473 740.5 473 C 733.59644 473 728 467.40356 728 460.5 Z" stroke-miterlimit="10"/></g><g transform="translate(-206,-86) scale(1,1)"><path fill="#000000" stroke="none" d="M 733 460.5 C 733 456.357864 736.357864 453 740.5 453 C 744.642136 453 748 456.357864 748 460.5 C 748 464.642136 744.642136 468 740.5 468 C 736.357864 468 733 464.642136 733 460.5 Z"/></g><g transform="translate(-206,-86) scale(1,1)"><path fill="none" stroke="#000000" d="M 656 464 L 728 464" stroke-miterlimit="10"/></g><g transform="translate(-206,-86) scale(1,1)"><path fill="none" stroke="#000000" d="M 717.8373251423759 468.209517756016 L 728 464 L 717.8373251423758 459.790482243984" stroke-miterlimit="10"/></g><g transform="translate(-206,-86) scale(1,1)"><path fill="#C0C0C0" stroke="none" d="M 361 903 L 461 903 Q 471 903 471 913 L 471 959 Q 471 969 461 969 L 361 969 Q 351 969 351 959 L 351 913 Q 351 903 361 903 Z" opacity="0.2"/></g><g transform="translate(-206,-86) scale(1,1)"><path fill="#e2e2e2" stroke="none" d="M 354 896 L 454 896 Q 464 896 464 906 L 464 952 Q 464 962 454 962 L 354 962 Q 344 962 344 952 L 344 906 Q 344 896 354 896 Z"/></g><g transform="translate(-206,-86) scale(1,1)"><path fill="none" stroke="#000000" d="M 354 896 L 454 896 Q 464 896 464 906 L 464 952 Q 464 962 454 962 L 354 962 Q 344 962 344 952 L 344 906 Q 344 896 354 896 Z" stroke-miterlimit="10"/></g><g transform="translate(-206,-86) scale(1,1)"><g><path fill="none" stroke="none"/><text fill="#000000" stroke="none" font-family="Arial" font-size="13px" font-style="normal" font-weight="bold" text-decoration="none" x="368.538818359375" y="915.5">Операции с</text><text fill="#000000" stroke="none" font-family="Arial" font-size="13px" font-style="normal" font-weight="bold" text-decoration="none" x="368.7958984375" y="928.5">резервации</text></g></g><g transform="translate(-206,-86) scale(1,1)"><path fill="#C0C0C0" stroke="none" d="M 1449 423 L 1541 423 Q 1551 423 1551 433 L 1551 477 Q 1551 487 1541 487 L 1449 487 Q 1439 487 1439 477 L 1439 433 Q 1439 423 1449 423 Z" opacity="0.2"/></g><g transform="translate(-206,-86) scale(1,1)"><path fill="#e2e2e2" stroke="none" d="M 1442 416 L 1534 416 Q 1544 416 1544 426 L 1544 470 Q 1544 480 1534 480 L 1442 480 Q 1432 480 1432 470 L 1432 426 Q 1432 416 1442 416 Z"/></g><g transform="translate(-206,-86) scale(1,1)"><path fill="none" stroke="#000000" d="M 1442 416 L 1534 416 Q 1544 416 1544 426 L 1544 470 Q 1544 480 1534 480 L 1442 480 Q 1432 480 1432 470 L 1432 426 Q 1432 416 1442 416 Z" stroke-miterlimit="10"/></g><g transform="translate(-206,-86) scale(1,1)"><g><path fill="none" stroke="none"/><text fill="#000000" stroke="none" font-family="Arial" font-size="13px" font-style="normal" font-weight="bold" text-decoration="none" x="1445.7880859375" y="435.5">Създаване на</text><text fill="#000000" stroke="none" font-family="Arial" font-size="13px" font-style="normal" font-weight="bold" text-decoration="none" x="1452.906982421875" y="448.5">резервация</text></g></g><g transform="translate(-206,-86) scale(1,1)"><path fill="#C0C0C0" stroke="none" d="M 1305 247 L 1437 247 Q 1447 247 1447 257 L 1447 303 Q 1447 313 1437 313 L 1305 313 Q 1295 313 1295 303 L 1295 257 Q 1295 247 1305 247 Z" opacity="0.2"/></g><g transform="translate(-206,-86) scale(1,1)"><path fill="#e2e2e2" stroke="none" d="M 1298 240 L 1430 240 Q 1440 240 1440 250 L 1440 296 Q 1440 306 1430 306 L 1298 306 Q 1288 306 1288 296 L 1288 250 Q 1288 240 1298 240 Z"/></g><g transform="translate(-206,-86) scale(1,1)"><path fill="none" stroke="#000000" d="M 1298 240 L 1430 240 Q 1440 240 1440 250 L 1440 296 Q 1440 306 1430 306 L 1298 306 Q 1288 306 1288 296 L 1288 250 Q 1288 240 1298 240 Z" stroke-miterlimit="10"/></g><g transform="translate(-206,-86) scale(1,1)"><g><path fill="none" stroke="none"/><text fill="#000000" stroke="none" font-family="Arial" font-size="13px" font-style="normal" font-weight="bold" text-decoration="none" x="1326.73291015625" y="259.5">Операции  с</text><text fill="#000000" stroke="none" font-family="Arial" font-size="13px" font-style="normal" font-weight="bold" text-decoration="none" x="1328.7958984375" y="272.5">резервации</text></g></g><g transform="translate(-206,-86) scale(1,1)"><path fill="#C0C0C0" stroke="none" d="M 1090 375 L 1708 375 Q 1711 375 1711 378 L 1711 377 Q 1711 380 1708 380 L 1090 380 Q 1087 380 1087 377 L 1087 378 Q 1087 375 1090 375 Z" opacity="0.2"/></g><g transform="translate(-206,-86) scale(1,1)"><path fill="#000000" stroke="none" d="M 1083 368 L 1701 368 Q 1704 368 1704 371 L 1704 371 Q 1704 374 1701 374 L 1083 374 Q 1080 374 1080 371 L 1080 371 Q 1080 368 1083 368 Z"/></g><g transform="translate(-206,-86) scale(1,1)"><path fill="none" stroke="#000000" d="M 1360 306 L 1360 368" stroke-miterlimit="10"/></g><g transform="translate(-206,-86) scale(1,1)"><path fill="none" stroke="#000000" d="M 1355.7904822439841 357.83732514237585 L 1360 368 L 1364.2095177560159 357.83732514237585" stroke-miterlimit="10"/></g><g transform="translate(-206,-86) scale(1,1)"><path fill="#C0C0C0" stroke="none" d="M 1129 423 L 1237 423 Q 1247 423 1247 433 L 1247 477 Q 1247 487 1237 487 L 1129 487 Q 1119 487 1119 477 L 1119 433 Q 1119 423 1129 423 Z" opacity="0.2"/></g><g transform="translate(-206,-86) scale(1,1)"><path fill="#ffffff" stroke="none" d="M 1122 416 L 1230 416 Q 1240 416 1240 426 L 1240 470 Q 1240 480 1230 480 L 1122 480 Q 1112 480 1112 470 L 1112 426 Q 1112 416 1122 416 Z"/></g><g transform="translate(-206,-86) scale(1,1)"><path fill="none" stroke="#000000" d="M 1122 416 L 1230 416 Q 1240 416 1240 426 L 1240 470 Q 1240 480 1230 480 L 1122 480 Q 1112 480 1112 470 L 1112 426 Q 1112 416 1122 416 Z" stroke-miterlimit="10"/></g><g transform="translate(-206,-86) scale(1,1)"><g><path fill="none" stroke="none"/><text fill="#000000" stroke="none" font-family="Arial" font-size="13px" font-style="normal" font-weight="bold" text-decoration="none" x="1131.372802734375" y="435.5">Използване на</text><text fill="#000000" stroke="none" font-family="Arial" font-size="13px" font-style="normal" font-weight="bold" text-decoration="none" x="1130.642822265625" y="448.5">функцията Edit</text></g></g><g transform="translate(-206,-86) scale(1,1)"><path fill="#C0C0C0" stroke="none" d="M 1289 423 L 1397 423 Q 1407 423 1407 433 L 1407 479 Q 1407 489 1397 489 L 1289 489 Q 1279 489 1279 479 L 1279 433 Q 1279 423 1289 423 Z" opacity="0.2"/></g><g transform="translate(-206,-86) scale(1,1)"><path fill="#ffffff" stroke="none" d="M 1282 416 L 1390 416 Q 1400 416 1400 426 L 1400 472 Q 1400 482 1390 482 L 1282 482 Q 1272 482 1272 472 L 1272 426 Q 1272 416 1282 416 Z"/></g><g transform="translate(-206,-86) scale(1,1)"><path fill="none" stroke="#000000" d="M 1282 416 L 1390 416 Q 1400 416 1400 426 L 1400 472 Q 1400 482 1390 482 L 1282 482 Q 1272 482 1272 472 L 1272 426 Q 1272 416 1282 416 Z" stroke-miterlimit="10"/></g><g transform="translate(-206,-86) scale(1,1)"><g><path fill="none" stroke="none"/><text fill="#000000" stroke="none" font-family="Arial" font-size="13px" font-style="normal" font-weight="bold" text-decoration="none" x="1291.372802734375" y="435.5">Използване на</text><text fill="#000000" stroke="none" font-family="Arial" font-size="13px" font-style="normal" font-weight="bold" text-decoration="none" x="1303.649169921875" y="448.5">функцията</text><text fill="#000000" stroke="none" font-family="Arial" font-size="13px" font-style="normal" font-weight="bold" text-decoration="none" x="1314.32275390625" y="461.5">Disable</text></g></g><g transform="translate(-206,-86) scale(1,1)"><path fill="none" stroke="#000000" d="M 1176 373 L 1176 416" stroke-miterlimit="10"/></g><g transform="translate(-206,-86) scale(1,1)"><path fill="none" stroke="#000000" d="M 1171.7904822439841 405.83732514237585 L 1176 416 L 1180.2095177560159 405.83732514237585" stroke-miterlimit="10"/></g><g transform="translate(-206,-86) scale(1,1)"><path fill="none" stroke="#000000" d="M 1336 373 L 1336 416" stroke-miterlimit="10"/></g><g transform="translate(-206,-86) scale(1,1)"><path fill="none" stroke="#000000" d="M 1331.7904822439841 405.83732514237585 L 1336 416 L 1340.2095177560159 405.83732514237585" stroke-miterlimit="10"/></g><g transform="translate(-206,-86) scale(1,1)"><path fill="#5aadd7" stroke="none" d="M 952 536 L 1079.12841796875 536 L 1089.12841796875 546 L 1089.12841796875 615 L 952 615 L 952 536"/></g><g transform="translate(-206,-86) scale(1,1)"><path fill="none" stroke="#000000" d="M 952 536 L 1079.12841796875 536 L 1089.12841796875 546 L 1089.12841796875 615 L 952 615 L 952 536 L 952 536" stroke-miterlimit="10"/></g><g transform="translate(-206,-86) scale(1,1)"><path fill="none" stroke="#000000" d="M 1079.12841796875 536 L 1079.12841796875 546 L 1089.12841796875 546 L 1079.12841796875 536" stroke-miterlimit="10"/></g><g transform="translate(-206,-86) scale(1,1)"><g><path fill="none" stroke="none"/><text fill="#ffffff" stroke="none" font-family="Arial" font-size="15px" font-style="normal" font-weight="normal" text-decoration="none" x="957" y="556">Зарежда се</text><text fill="#ffffff" stroke="none" font-family="Arial" font-size="15px" font-style="normal" font-weight="normal" text-decoration="none" x="957" y="571">информацията за</text><text fill="#ffffff" stroke="none" font-family="Arial" font-size="15px" font-style="normal" font-weight="normal" text-decoration="none" x="957" y="586">текущата</text><text fill="#ffffff" stroke="none" font-family="Arial" font-size="15px" font-style="normal" font-weight="normal" text-decoration="none" x="957" y="601">резервация.</text></g></g><g transform="translate(-206,-86) scale(1,1)"><path fill="#C0C0C0" stroke="none" d="M 1137 543 L 1245 543 Q 1255 543 1255 553 L 1255 597 Q 1255 607 1245 607 L 1137 607 Q 1127 607 1127 597 L 1127 553 Q 1127 543 1137 543 Z" opacity="0.2"/></g><g transform="translate(-206,-86) scale(1,1)"><path fill="#ffffff" stroke="none" d="M 1130 536 L 1238 536 Q 1248 536 1248 546 L 1248 590 Q 1248 600 1238 600 L 1130 600 Q 1120 600 1120 590 L 1120 546 Q 1120 536 1130 536 Z"/></g><g transform="translate(-206,-86) scale(1,1)"><path fill="none" stroke="#000000" d="M 1130 536 L 1238 536 Q 1248 536 1248 546 L 1248 590 Q 1248 600 1238 600 L 1130 600 Q 1120 600 1120 590 L 1120 546 Q 1120 536 1130 536 Z" stroke-miterlimit="10"/></g><g transform="translate(-206,-86) scale(1,1)"><g><path fill="none" stroke="none"/><text fill="#000000" stroke="none" font-family="Arial" font-size="13px" font-style="normal" font-weight="bold" text-decoration="none" x="1150.341552734375" y="555.5">Зареждане</text></g></g><g transform="translate(-206,-86) scale(1,1)"><path fill="#C0C0C0" stroke="none" d="M 1137 663 L 1245 663 Q 1255 663 1255 673 L 1255 706 Q 1255 716 1245 716 L 1137 716 Q 1127 716 1127 706 L 1127 673 Q 1127 663 1137 663 Z" opacity="0.2"/></g><g transform="translate(-206,-86) scale(1,1)"><path fill="#ffffff" stroke="none" d="M 1130 656 L 1238 656 Q 1248 656 1248 666 L 1248 699 Q 1248 709 1238 709 L 1130 709 Q 1120 709 1120 699 L 1120 666 Q 1120 656 1130 656 Z"/></g><g transform="translate(-206,-86) scale(1,1)"><path fill="none" stroke="#000000" d="M 1130 656 L 1238 656 Q 1248 656 1248 666 L 1248 699 Q 1248 709 1238 709 L 1130 709 Q 1120 709 1120 699 L 1120 666 Q 1120 656 1130 656 Z" stroke-miterlimit="10"/></g><g transform="translate(-206,-86) scale(1,1)"><g><path fill="none" stroke="none"/><text fill="#000000" stroke="none" font-family="Arial" font-size="13px" font-style="normal" font-weight="bold" text-decoration="none" x="1140.708984375" y="675.5">Въвеждане на</text><text fill="#000000" stroke="none" font-family="Arial" font-size="13px" font-style="normal" font-weight="bold" text-decoration="none" x="1137.443115234375" y="688.5">нови стойности</text></g></g><g transform="translate(-206,-86) scale(1,1)"><path fill="none" stroke="#000000" d="M 1184 600 L 1184 656" stroke-miterlimit="10"/></g><g transform="translate(-206,-86) scale(1,1)"><path fill="none" stroke="#000000" d="M 1179.7904822439841 645.8373251423759 L 1184 656 L 1188.2095177560159 645.8373251423759" stroke-miterlimit="10"/></g><g transform="translate(-206,-86) scale(1,1)"><path fill="#5aadd7" stroke="none" d="M 984 744 L 1090.0859375 744 L 1100.0859375 754 L 1100.0859375 814 L 984 814 L 984 744"/></g><g transform="translate(-206,-86) scale(1,1)"><path fill="none" stroke="#000000" d="M 984 744 L 1090.0859375 744 L 1100.0859375 754 L 1100.0859375 814 L 984 814 L 984 744 L 984 744" stroke-miterlimit="10"/></g><g transform="translate(-206,-86) scale(1,1)"><path fill="none" stroke="#000000" d="M 1090.0859375 744 L 1090.0859375 754 L 1100.0859375 754 L 1090.0859375 744" stroke-miterlimit="10"/></g><g transform="translate(-206,-86) scale(1,1)"><g><path fill="none" stroke="none"/><text fill="#ffffff" stroke="none" font-family="Arial" font-size="15px" font-style="normal" font-weight="normal" text-decoration="none" x="989" y="764">Валидация на</text><text fill="#ffffff" stroke="none" font-family="Arial" font-size="15px" font-style="normal" font-weight="normal" text-decoration="none" x="989" y="779">новъведените</text><text fill="#ffffff" stroke="none" font-family="Arial" font-size="15px" font-style="normal" font-weight="normal" text-decoration="none" x="989" y="794">данни.</text></g></g><g transform="translate(-206,-86) scale(1,1)"><path fill="#C0C0C0" stroke="none" d="M 1159 815.5 L 1188 791 L 1216 815.5 L 1188 839 L 1159 815.5" opacity="0.2"/></g><g transform="translate(-206,-86) scale(1,1)"><path fill="#ffffff" stroke="none" d="M 1152 808 L 1180.5 784 L 1209 808 L 1180.5 832 L 1152 808"/></g><g transform="translate(-206,-86) scale(1,1)"><path fill="none" stroke="#000000" d="M 1152 808 L 1180.5 784 L 1209 808 L 1180.5 832 L 1152 808 L 1152 808" stroke-miterlimit="10"/></g><g transform="translate(-206,-86) scale(1,1)"><path fill="none" stroke="#000000" d="M 1183 709 L 1183 784" stroke-miterlimit="10"/></g><g transform="translate(-206,-86) scale(1,1)"><path fill="none" stroke="#000000" d="M 1178.7904822439841 773.8373251423759 L 1183 784 L 1187.2095177560159 773.8373251423759" stroke-miterlimit="10"/></g><g transform="translate(-206,-86) scale(1,1)"><path fill="none" stroke="#000000" d="M 1209 808 L 1288 808 L 1288 680 L 1248 680" stroke-miterlimit="10"/></g><g transform="translate(-206,-86) scale(1,1)"><path fill="none" stroke="#000000" d="M 1258.162674857624 675.790482243984 L 1248 680 L 1258.162674857624 684.209517756016" stroke-miterlimit="10"/></g><g transform="translate(-206,-86) scale(1,1)"><g><path fill="none" stroke="none"/><text fill="#a90000" stroke="none" font-family="Arial" font-size="13px" font-style="normal" font-weight="normal" text-decoration="none" x="1213" y="794">невалидни</text></g></g><g transform="translate(-206,-86) scale(1,1)"><g><path fill="none" stroke="none"/><text fill="#005128" stroke="none" font-family="Arial" font-size="13px" font-style="normal" font-weight="normal" text-decoration="none" x="1109" y="874">валидни</text></g></g><g transform="translate(-206,-86) scale(1,1)"><path fill="#C0C0C0" stroke="none" d="M 1153 919 L 1220 919 Q 1230 919 1230 929 L 1230 949 Q 1230 959 1220 959 L 1153 959 Q 1143 959 1143 949 L 1143 929 Q 1143 919 1153 919 Z" opacity="0.2"/></g><g transform="translate(-206,-86) scale(1,1)"><path fill="#ffffff" stroke="none" d="M 1146 912 L 1213 912 Q 1223 912 1223 922 L 1223 942 Q 1223 952 1213 952 L 1146 952 Q 1136 952 1136 942 L 1136 922 Q 1136 912 1146 912 Z"/></g><g transform="translate(-206,-86) scale(1,1)"><path fill="none" stroke="#000000" d="M 1146 912 L 1213 912 Q 1223 912 1223 922 L 1223 942 Q 1223 952 1213 952 L 1146 952 Q 1136 952 1136 942 L 1136 922 Q 1136 912 1146 912 Z" stroke-miterlimit="10"/></g><g transform="translate(-206,-86) scale(1,1)"><g><path fill="none" stroke="none"/><text fill="#000000" stroke="none" font-family="Arial" font-size="13px" font-style="normal" font-weight="bold" text-decoration="none" x="1147.71728515625" y="931.5">Запазване</text></g></g><g transform="translate(-206,-86) scale(1,1)"><path fill="none" stroke="#000000" d="M 1180 832 L 1180 912" stroke-miterlimit="10"/></g><g transform="translate(-206,-86) scale(1,1)"><path fill="none" stroke="#000000" d="M 1175.7904822439841 901.8373251423759 L 1180 912 L 1184.2095177560159 901.8373251423759" stroke-miterlimit="10"/></g><g transform="translate(-206,-86) scale(1,1)"><path fill="none" stroke="#000000" d="M 1091 573 L 1119 571" stroke-miterlimit="10" stroke-dasharray="3"/></g><g transform="translate(-206,-86) scale(1,1)"><path fill="none" stroke="#000000" d="M 1102 792 L 1151 802" stroke-miterlimit="10" stroke-dasharray="3"/></g><g transform="translate(-206,-86) scale(1,1)"><path fill="#C0C0C0" stroke="none" d="M 1407 590.5 L 1431.5 567 L 1455 590.5 L 1431.5 613 L 1407 590.5" opacity="0.2"/></g><g transform="translate(-206,-86) scale(1,1)"><path fill="#ffffff" stroke="none" d="M 1400 583 L 1424 560 L 1448 583 L 1424 606 L 1400 583"/></g><g transform="translate(-206,-86) scale(1,1)"><path fill="none" stroke="#000000" d="M 1400 583 L 1424 560 L 1448 583 L 1424 606 L 1400 583 L 1400 583" stroke-miterlimit="10"/></g><g transform="translate(-206,-86) scale(1,1)"><path fill="#C0C0C0" stroke="none" d="M 1311 1019.5 C 1311 1012.59644 1316.59644 1007 1323.5 1007 C 1330.40356 1007 1336 1012.59644 1336 1019.5 C 1336 1026.40356 1330.40356 1032 1323.5 1032 C 1316.59644 1032 1311 1026.40356 1311 1019.5 Z" opacity="0.2"/></g><g transform="translate(-206,-86) scale(1,1)"><path fill="#ffffff" stroke="none" d="M 1304 1012.5 C 1304 1005.59644 1309.59644 1000 1316.5 1000 C 1323.40356 1000 1329 1005.59644 1329 1012.5 C 1329 1019.40356 1323.40356 1025 1316.5 1025 C 1309.59644 1025 1304 1019.40356 1304 1012.5 Z"/></g><g transform="translate(-206,-86) scale(1,1)"><path fill="none" stroke="#000000" d="M 1304 1012.5 C 1304 1005.59644 1309.59644 1000 1316.5 1000 C 1323.40356 1000 1329 1005.59644 1329 1012.5 C 1329 1019.40356 1323.40356 1025 1316.5 1025 C 1309.59644 1025 1304 1019.40356 1304 1012.5 Z" stroke-miterlimit="10"/></g><g transform="translate(-206,-86) scale(1,1)"><path fill="none" stroke="#000000" d="M 1307 1003 L 1325 1021" stroke-miterlimit="10"/></g><g transform="translate(-206,-86) scale(1,1)"><path fill="none" stroke="#000000" d="M 1325 1003 L 1307 1021" stroke-miterlimit="10"/></g><g transform="translate(-206,-86) scale(1,1)"><path fill="#C0C0C0" stroke="none" d="M 1313 743 L 1369.208984375 743 Q 1379.208984375 743 1379.208984375 753 L 1379.208984375 773 Q 1379.208984375 783 1369.208984375 783 L 1313 783 Q 1303 783 1303 773 L 1303 753 Q 1303 743 1313 743 Z" opacity="0.2"/></g><g transform="translate(-206,-86) scale(1,1)"><path fill="#ffffff" stroke="none" d="M 1306 736 L 1362.208984375 736 Q 1372.208984375 736 1372.208984375 746 L 1372.208984375 766 Q 1372.208984375 776 1362.208984375 776 L 1306 776 Q 1296 776 1296 766 L 1296 746 Q 1296 736 1306 736 Z"/></g><g transform="translate(-206,-86) scale(1,1)"><path fill="none" stroke="#000000" d="M 1306 736 L 1362.208984375 736 Q 1372.208984375 736 1372.208984375 746 L 1372.208984375 766 Q 1372.208984375 776 1362.208984375 776 L 1306 776 Q 1296 776 1296 766 L 1296 746 Q 1296 736 1306 736 Z" stroke-miterlimit="10"/></g><g transform="translate(-206,-86) scale(1,1)"><g><path fill="none" stroke="none"/><text fill="#000000" stroke="none" font-family="Arial" font-size="13px" font-style="normal" font-weight="bold" text-decoration="none" x="1302.32177734375" y="755.5">Запазване</text></g></g><g transform="translate(-206,-86) scale(1,1)"><path fill="none" stroke="#000000" d="M 1400 584 L 1320 584 L 1320 736" stroke-miterlimit="10"/></g><g transform="translate(-206,-86) scale(1,1)"><path fill="none" stroke="#000000" d="M 1315.7904822439841 725.8373251423759 L 1320 736 L 1324.2095177560159 725.8373251423759" stroke-miterlimit="10"/></g><g transform="translate(-206,-86) scale(1,1)"><path fill="none" stroke="#000000" d="M 1448 584 L 1512 584 L 1512 1020 L 1329 1020" stroke-miterlimit="10"/></g><g transform="translate(-206,-86) scale(1,1)"><path fill="none" stroke="#000000" d="M 1339.162674857624 1015.790482243984 L 1329 1020 L 1339.162674857624 1024.2095177560159" stroke-miterlimit="10"/></g><g transform="translate(-206,-86) scale(1,1)"><path fill="#5aadd7" stroke="none" d="M 1352 640 L 1470.74951171875 640 L 1480.74951171875 650 L 1480.74951171875 695 L 1352 695 L 1352 640"/></g><g transform="translate(-206,-86) scale(1,1)"><path fill="none" stroke="#000000" d="M 1352 640 L 1470.74951171875 640 L 1480.74951171875 650 L 1480.74951171875 695 L 1352 695 L 1352 640 L 1352 640" stroke-miterlimit="10"/></g><g transform="translate(-206,-86) scale(1,1)"><path fill="none" stroke="#000000" d="M 1470.74951171875 640 L 1470.74951171875 650 L 1480.74951171875 650 L 1470.74951171875 640" stroke-miterlimit="10"/></g><g transform="translate(-206,-86) scale(1,1)"><g><path fill="none" stroke="none"/><text fill="#ffffff" stroke="none" font-family="Arial" font-size="15px" font-style="normal" font-weight="normal" text-decoration="none" x="1357" y="660">Потвърждаване</text><text fill="#ffffff" stroke="none" font-family="Arial" font-size="15px" font-style="normal" font-weight="normal" text-decoration="none" x="1357" y="675">на операцията.</text></g></g><g transform="translate(-206,-86) scale(1,1)"><g><path fill="none" stroke="none"/><text fill="#006a35" stroke="none" font-family="Arial" font-size="13px" font-style="normal" font-weight="normal" text-decoration="none" x="1317" y="578">потвърждение</text></g></g><g transform="translate(-206,-86) scale(1,1)"><g><path fill="none" stroke="none"/><text fill="#ba0000" stroke="none" font-family="Arial" font-size="13px" font-style="normal" font-weight="normal" text-decoration="none" x="1445" y="578">отхвърляне</text></g></g><g transform="translate(-206,-86) scale(1,1)"><path fill="none" stroke="#000000" d="M 1320 776 L 1320 1000" stroke-miterlimit="10"/></g><g transform="translate(-206,-86) scale(1,1)"><path fill="none" stroke="#000000" d="M 1315.7904822439841 989.8373251423759 L 1320 1000 L 1324.2095177560159 989.8373251423759" stroke-miterlimit="10"/></g><g transform="translate(-206,-86) scale(1,1)"><path fill="none" stroke="#000000" d="M 1176 952 L 1176 1016 L 1304 1016" stroke-miterlimit="10"/></g><g transform="translate(-206,-86) scale(1,1)"><path fill="none" stroke="#000000" d="M 1293.837325142376 1020.209517756016 L 1304 1016 L 1293.837325142376 1011.790482243984" stroke-miterlimit="10"/></g><g transform="translate(-206,-86) scale(1,1)"><path fill="#e64949" stroke="none" d="M 1344 840 L 1461 840 L 1471 850 L 1471 919 L 1344 919 L 1344 840"/></g><g transform="translate(-206,-86) scale(1,1)"><path fill="none" stroke="#000000" d="M 1344 840 L 1461 840 L 1471 850 L 1471 919 L 1344 919 L 1344 840 L 1344 840" stroke-miterlimit="10"/></g><g transform="translate(-206,-86) scale(1,1)"><path fill="none" stroke="#000000" d="M 1461 840 L 1461 850 L 1471 850 L 1461 840" stroke-miterlimit="10"/></g><g transform="translate(-206,-86) scale(1,1)"><g><path fill="none" stroke="none"/><text fill="#ffffff" stroke="none" font-family="Arial" font-size="15px" font-style="normal" font-weight="normal" text-decoration="none" x="1349" y="860">Премахване на</text><text fill="#ffffff" stroke="none" font-family="Arial" font-size="15px" font-style="normal" font-weight="normal" text-decoration="none" x="1349" y="875">резервация от</text><text fill="#ffffff" stroke="none" font-family="Arial" font-size="15px" font-style="normal" font-weight="normal" text-decoration="none" x="1349" y="890">системата,чрез</text><text fill="#ffffff" stroke="none" font-family="Arial" font-size="15px" font-style="normal" font-weight="normal" text-decoration="none" x="1349" y="905">UPDATE.</text></g></g><g transform="translate(-206,-86) scale(1,1)"><path fill="none" stroke="#000000" d="M 1424 640 L 1424 606" stroke-miterlimit="10" stroke-dasharray="3"/></g><g transform="translate(-206,-86) scale(1,1)"><path fill="none" stroke="#000000" d="M 1384 839 L 1347 777" stroke-miterlimit="10" stroke-dasharray="3"/></g><g transform="translate(-206,-86) scale(1,1)"><path fill="#5aadd7" stroke="none" d="M 1256 1056 L 1365.42578125 1056 L 1375.42578125 1066 L 1375.42578125 1119 L 1256 1119 L 1256 1056"/></g><g transform="translate(-206,-86) scale(1,1)"><path fill="none" stroke="#000000" d="M 1256 1056 L 1365.42578125 1056 L 1375.42578125 1066 L 1375.42578125 1119 L 1256 1119 L 1256 1056 L 1256 1056" stroke-miterlimit="10"/></g><g transform="translate(-206,-86) scale(1,1)"><path fill="none" stroke="#000000" d="M 1365.42578125 1056 L 1365.42578125 1066 L 1375.42578125 1066 L 1365.42578125 1056" stroke-miterlimit="10"/></g><g transform="translate(-206,-86) scale(1,1)"><g><path fill="none" stroke="none"/><text fill="#ffffff" stroke="none" font-family="Arial" font-size="15px" font-style="normal" font-weight="normal" text-decoration="none" x="1261" y="1076">Връщане към</text><text fill="#ffffff" stroke="none" font-family="Arial" font-size="15px" font-style="normal" font-weight="normal" text-decoration="none" x="1261" y="1091">панела</text><text fill="#ffffff" stroke="none" font-family="Arial" font-size="15px" font-style="normal" font-weight="normal" text-decoration="none" x="1261" y="1106">Рецепционист.</text></g></g><g transform="translate(-206,-86) scale(1,1)"><path fill="#5aadd7" stroke="none" d="M 984 912 L 1096.47998046875 912 L 1106.47998046875 922 L 1106.47998046875 997 L 984 997 L 984 912"/></g><g transform="translate(-206,-86) scale(1,1)"><path fill="none" stroke="#000000" d="M 984 912 L 1096.47998046875 912 L 1106.47998046875 922 L 1106.47998046875 997 L 984 997 L 984 912 L 984 912" stroke-miterlimit="10"/></g><g transform="translate(-206,-86) scale(1,1)"><path fill="none" stroke="#000000" d="M 1096.47998046875 912 L 1096.47998046875 922 L 1106.47998046875 922 L 1096.47998046875 912" stroke-miterlimit="10"/></g><g transform="translate(-206,-86) scale(1,1)"><g><path fill="none" stroke="none"/><text fill="#ffffff" stroke="none" font-family="Arial" font-size="15px" font-style="normal" font-weight="normal" text-decoration="none" x="989" y="932">UPDATE  в база</text><text fill="#ffffff" stroke="none" font-family="Arial" font-size="15px" font-style="normal" font-weight="normal" text-decoration="none" x="989" y="947">данни за</text><text fill="#ffffff" stroke="none" font-family="Arial" font-size="15px" font-style="normal" font-weight="normal" text-decoration="none" x="989" y="962">резервации.</text></g></g><g transform="translate(-206,-86) scale(1,1)"><path fill="none" stroke="#000000" d="M 1108 944 L 1135 940" stroke-miterlimit="10" stroke-dasharray="3"/></g><g transform="translate(-206,-86) scale(1,1)"><path fill="none" stroke="#000000" d="M 1312 1056 L 1312 1025" stroke-miterlimit="10" stroke-dasharray="3"/></g><g transform="translate(-206,-86) scale(1,1)"><path fill="#C0C0C0" stroke="none" d="M 2305 167 L 2421 167 Q 2431 167 2431 177 L 2431 210 Q 2431 220 2421 220 L 2305 220 Q 2295 220 2295 210 L 2295 177 Q 2295 167 2305 167 Z" opacity="0.2"/></g><g transform="translate(-206,-86) scale(1,1)"><path fill="#e2e2e2" stroke="none" d="M 2298 160 L 2414 160 Q 2424 160 2424 170 L 2424 203 Q 2424 213 2414 213 L 2298 213 Q 2288 213 2288 203 L 2288 170 Q 2288 160 2298 160 Z"/></g><g transform="translate(-206,-86) scale(1,1)"><path fill="none" stroke="#000000" d="M 2298 160 L 2414 160 Q 2424 160 2424 170 L 2424 203 Q 2424 213 2414 213 L 2298 213 Q 2288 213 2288 203 L 2288 170 Q 2288 160 2298 160 Z" stroke-miterlimit="10"/></g><g transform="translate(-206,-86) scale(1,1)"><g><path fill="none" stroke="none"/><text fill="#000000" stroke="none" font-family="Arial" font-size="13px" font-style="normal" font-weight="bold" text-decoration="none" x="2313.7880859375" y="179.5">Създаване на</text><text fill="#000000" stroke="none" font-family="Arial" font-size="13px" font-style="normal" font-weight="bold" text-decoration="none" x="2320.906982421875" y="192.5">резервация</text></g></g><g transform="translate(-206,-86) scale(1,1)"><path fill="#C0C0C0" stroke="none" d="M 2305 255 L 2421 255 Q 2431 255 2431 265 L 2431 311 Q 2431 321 2421 321 L 2305 321 Q 2295 321 2295 311 L 2295 265 Q 2295 255 2305 255 Z" opacity="0.2"/></g><g transform="translate(-206,-86) scale(1,1)"><path fill="#ffffff" stroke="none" d="M 2298 248 L 2414 248 Q 2424 248 2424 258 L 2424 304 Q 2424 314 2414 314 L 2298 314 Q 2288 314 2288 304 L 2288 258 Q 2288 248 2298 248 Z"/></g><g transform="translate(-206,-86) scale(1,1)"><path fill="none" stroke="#000000" d="M 2298 248 L 2414 248 Q 2424 248 2424 258 L 2424 304 Q 2424 314 2414 314 L 2298 314 Q 2288 314 2288 304 L 2288 258 Q 2288 248 2298 248 Z" stroke-miterlimit="10"/></g><g transform="translate(-206,-86) scale(1,1)"><g><path fill="none" stroke="none"/><text fill="#000000" stroke="none" font-family="Arial" font-size="13px" font-style="normal" font-weight="bold" text-decoration="none" x="2313.3310546875" y="267.5">Зареждане на</text><text fill="#000000" stroke="none" font-family="Arial" font-size="13px" font-style="normal" font-weight="bold" text-decoration="none" x="2316.444580078125" y="280.5">формуляр за</text><text fill="#000000" stroke="none" font-family="Arial" font-size="13px" font-style="normal" font-weight="bold" text-decoration="none" x="2318.437744140625" y="293.5">регистрация</text></g></g><g transform="translate(-206,-86) scale(1,1)"><path fill="none" stroke="#000000" d="M 2360 213 L 2360 248" stroke-miterlimit="10"/></g><g transform="translate(-206,-86) scale(1,1)"><path fill="none" stroke="#000000" d="M 2355.790482243984 237.83732514237585 L 2360 248 L 2364.209517756016 237.83732514237585" stroke-miterlimit="10"/></g><g transform="translate(-206,-86) scale(1,1)"><path fill="#C0C0C0" stroke="none" d="M 2343 775.5 L 2367.5 751 L 2391 775.5 L 2367.5 799 L 2343 775.5" opacity="0.2"/></g><g transform="translate(-206,-86) scale(1,1)"><path fill="#ffffff" stroke="none" d="M 2336 768 L 2360 744 L 2384 768 L 2360 792 L 2336 768"/></g><g transform="translate(-206,-86) scale(1,1)"><path fill="none" stroke="#000000" d="M 2336 768 L 2360 744 L 2384 768 L 2360 792 L 2336 768 L 2336 768" stroke-miterlimit="10"/></g><g transform="translate(-206,-86) scale(1,1)"><path fill="#C0C0C0" stroke="none" d="M 2321 855 L 2412 855 Q 2422 855 2422 865 L 2422 885 Q 2422 895 2412 895 L 2321 895 Q 2311 895 2311 885 L 2311 865 Q 2311 855 2321 855 Z" opacity="0.2"/></g><g transform="translate(-206,-86) scale(1,1)"><path fill="#ffffff" stroke="none" d="M 2314 848 L 2405 848 Q 2415 848 2415 858 L 2415 878 Q 2415 888 2405 888 L 2314 888 Q 2304 888 2304 878 L 2304 858 Q 2304 848 2314 848 Z"/></g><g transform="translate(-206,-86) scale(1,1)"><path fill="none" stroke="#000000" d="M 2314 848 L 2405 848 Q 2415 848 2415 858 L 2415 878 Q 2415 888 2405 888 L 2314 888 Q 2304 888 2304 878 L 2304 858 Q 2304 848 2314 848 Z" stroke-miterlimit="10"/></g><g transform="translate(-206,-86) scale(1,1)"><g><path fill="none" stroke="none"/><text fill="#000000" stroke="none" font-family="Arial" font-size="13px" font-style="normal" font-weight="bold" text-decoration="none" x="2327.358642578125" y="867.5">Записване</text></g></g><g transform="translate(-206,-86) scale(1,1)"><path fill="#5aadd7" stroke="none" d="M 2456 904 L 2573 904 L 2583 914 L 2583 967 L 2456 967 L 2456 904"/></g><g transform="translate(-206,-86) scale(1,1)"><path fill="none" stroke="#000000" d="M 2456 904 L 2573 904 L 2583 914 L 2583 967 L 2456 967 L 2456 904 L 2456 904" stroke-miterlimit="10"/></g><g transform="translate(-206,-86) scale(1,1)"><path fill="none" stroke="#000000" d="M 2573 904 L 2573 914 L 2583 914 L 2573 904" stroke-miterlimit="10"/></g><g transform="translate(-206,-86) scale(1,1)"><g><path fill="none" stroke="none"/><text fill="#ffffff" stroke="none" font-family="Arial" font-size="13px" font-style="normal" font-weight="normal" text-decoration="none" x="2461" y="922">Успешно</text><text fill="#ffffff" stroke="none" font-family="Arial" font-size="13px" font-style="normal" font-weight="normal" text-decoration="none" x="2461" y="935">създадена</text><text fill="#ffffff" stroke="none" font-family="Arial" font-size="13px" font-style="normal" font-weight="normal" text-decoration="none" x="2461" y="948">резервация.</text></g></g><g transform="translate(-206,-86) scale(1,1)"><path fill="none" stroke="#000000" d="M 2358 792 L 2358 848" stroke-miterlimit="10"/></g><g transform="translate(-206,-86) scale(1,1)"><path fill="none" stroke="#000000" d="M 2353.790482243984 837.8373251423759 L 2358 848 L 2362.209517756016 837.8373251423759" stroke-miterlimit="10"/></g><g transform="translate(-206,-86) scale(1,1)"><path fill="#5aadd7" stroke="none" d="M 2160 792 L 2249.4599609375 792 L 2259.4599609375 802 L 2259.4599609375 877 L 2160 877 L 2160 792"/></g><g transform="translate(-206,-86) scale(1,1)"><path fill="none" stroke="#000000" d="M 2160 792 L 2249.4599609375 792 L 2259.4599609375 802 L 2259.4599609375 877 L 2160 877 L 2160 792 L 2160 792" stroke-miterlimit="10"/></g><g transform="translate(-206,-86) scale(1,1)"><path fill="none" stroke="#000000" d="M 2249.4599609375 792 L 2249.4599609375 802 L 2259.4599609375 802 L 2249.4599609375 792" stroke-miterlimit="10"/></g><g transform="translate(-206,-86) scale(1,1)"><g><path fill="none" stroke="none"/><text fill="#ffffff" stroke="none" font-family="Arial" font-size="15px" font-style="normal" font-weight="normal" text-decoration="none" x="2165" y="812">Обща</text><text fill="#ffffff" stroke="none" font-family="Arial" font-size="15px" font-style="normal" font-weight="normal" text-decoration="none" x="2165" y="827">валидация</text><text fill="#ffffff" stroke="none" font-family="Arial" font-size="15px" font-style="normal" font-weight="normal" text-decoration="none" x="2165" y="842">на</text><text fill="#ffffff" stroke="none" font-family="Arial" font-size="15px" font-style="normal" font-weight="normal" text-decoration="none" x="2165" y="857">въведените </text><text fill="#ffffff" stroke="none" font-family="Arial" font-size="15px" font-style="normal" font-weight="normal" text-decoration="none" x="2165" y="872">данни.</text></g></g><g transform="translate(-206,-86) scale(1,1)"><path fill="none" stroke="#000000" d="M 2261 812 L 2335 779" stroke-miterlimit="10" stroke-dasharray="3"/></g><g transform="translate(-206,-86) scale(1,1)"><g><path fill="none" stroke="none"/><text fill="#a90000" stroke="none" font-family="Arial" font-size="15px" font-style="normal" font-weight="normal" text-decoration="none" x="2397" y="756">невалидни</text></g></g><g transform="translate(-206,-86) scale(1,1)"><g><path fill="none" stroke="none"/><text fill="#005128" stroke="none" font-family="Arial" font-size="15px" font-style="normal" font-weight="normal" text-decoration="none" x="2373" y="812">валидни</text></g></g><g transform="translate(-206,-86) scale(1,1)"><path fill="#C0C0C0" stroke="none" d="M 2359 947.5 C 2359 940.59644 2364.59644 935 2371.5 935 C 2378.40356 935 2384 940.59644 2384 947.5 C 2384 954.40356 2378.40356 960 2371.5 960 C 2364.59644 960 2359 954.40356 2359 947.5 Z" opacity="0.2"/></g><g transform="translate(-206,-86) scale(1,1)"><path fill="#ffffff" stroke="none" d="M 2352 940.5 C 2352 933.59644 2357.59644 928 2364.5 928 C 2371.40356 928 2377 933.59644 2377 940.5 C 2377 947.40356 2371.40356 953 2364.5 953 C 2357.59644 953 2352 947.40356 2352 940.5 Z"/></g><g transform="translate(-206,-86) scale(1,1)"><path fill="none" stroke="#000000" d="M 2352 940.5 C 2352 933.59644 2357.59644 928 2364.5 928 C 2371.40356 928 2377 933.59644 2377 940.5 C 2377 947.40356 2371.40356 953 2364.5 953 C 2357.59644 953 2352 947.40356 2352 940.5 Z" stroke-miterlimit="10"/></g><g transform="translate(-206,-86) scale(1,1)"><path fill="none" stroke="#000000" d="M 2355 931 L 2373 949" stroke-miterlimit="10"/></g><g transform="translate(-206,-86) scale(1,1)"><path fill="none" stroke="#000000" d="M 2373 931 L 2355 949" stroke-miterlimit="10"/></g><g transform="translate(-206,-86) scale(1,1)"><path fill="none" stroke="#000000" d="M 2360 888 L 2360 928" stroke-miterlimit="10"/></g><g transform="translate(-206,-86) scale(1,1)"><path fill="none" stroke="#000000" d="M 2355.790482243984 917.8373251423759 L 2360 928 L 2364.209517756016 917.8373251423759" stroke-miterlimit="10"/></g><g transform="translate(-206,-86) scale(1,1)"><path fill="none" stroke="#000000" d="M 2456 944 L 2377 944" stroke-miterlimit="10" stroke-dasharray="3"/></g><g transform="translate(-206,-86) scale(1,1)"><path fill="none" stroke="#000000" d="M 1488 373 L 1488 416" stroke-miterlimit="10"/></g><g transform="translate(-206,-86) scale(1,1)"><path fill="none" stroke="#000000" d="M 1483.7904822439841 405.83732514237585 L 1488 416 L 1492.2095177560159 405.83732514237585" stroke-miterlimit="10"/></g><g transform="translate(-206,-86) scale(1,1)"><path fill="#C0C0C0" stroke="none" d="M 353 423 L 453 423 Q 463 423 463 433 L 463 477 Q 463 487 453 487 L 353 487 Q 343 487 343 477 L 343 433 Q 343 423 353 423 Z" opacity="0.2"/></g><g transform="translate(-206,-86) scale(1,1)"><path fill="#ffffff" stroke="none" d="M 346 416 L 446 416 Q 456 416 456 426 L 456 470 Q 456 480 446 480 L 346 480 Q 336 480 336 470 L 336 426 Q 336 416 346 416 Z"/></g><g transform="translate(-206,-86) scale(1,1)"><path fill="none" stroke="#000000" d="M 346 416 L 446 416 Q 456 416 456 426 L 456 470 Q 456 480 446 480 L 346 480 Q 336 480 336 470 L 336 426 Q 336 416 346 416 Z" stroke-miterlimit="10"/></g><g transform="translate(-206,-86) scale(1,1)"><g><path fill="none" stroke="none"/><text fill="#000000" stroke="none" font-family="Arial" font-size="13px" font-style="normal" font-weight="bold" text-decoration="none" x="353.7880859375" y="435.5">Създаване на</text><text fill="#000000" stroke="none" font-family="Arial" font-size="13px" font-style="normal" font-weight="bold" text-decoration="none" x="371.84716796875" y="448.5">клиенти</text></g></g><g transform="translate(-206,-86) scale(1,1)"><path fill="none" stroke="#000000" d="M 400 365 L 400 416" stroke-miterlimit="10"/></g><g transform="translate(-206,-86) scale(1,1)"><path fill="none" stroke="#000000" d="M 395.790482243984 405.83732514237585 L 400 416 L 404.209517756016 405.83732514237585" stroke-miterlimit="10"/></g><g transform="translate(-206,-86) scale(1,1)"><path fill="none" stroke="#000000" d="M 1184 480 L 1184 536" stroke-miterlimit="10"/></g><g transform="translate(-206,-86) scale(1,1)"><path fill="none" stroke="#000000" d="M 1179.7904822439841 525.8373251423759 L 1184 536 L 1188.2095177560159 525.8373251423759" stroke-miterlimit="10"/></g><g transform="translate(-206,-86) scale(1,1)"><path fill="#C0C0C0" stroke="none" d="M 1954 367 L 2764 367 Q 2767 367 2767 370 L 2767 369 Q 2767 372 2764 372 L 1954 372 Q 1951 372 1951 369 L 1951 370 Q 1951 367 1954 367 Z" opacity="0.2"/></g><g transform="translate(-206,-86) scale(1,1)"><path fill="#000000" stroke="none" d="M 1947 360 L 2757 360 Q 2760 360 2760 363 L 2760 363 Q 2760 366 2757 366 L 1947 366 Q 1944 366 1944 363 L 1944 363 Q 1944 360 1947 360 Z"/></g><g transform="translate(-206,-86) scale(1,1)"><path fill="#C0C0C0" stroke="none" d="M 1977 407 L 2085 407 Q 2095 407 2095 417 L 2095 463 Q 2095 473 2085 473 L 1977 473 Q 1967 473 1967 463 L 1967 417 Q 1967 407 1977 407 Z" opacity="0.2"/></g><g transform="translate(-206,-86) scale(1,1)"><path fill="#ffffff" stroke="none" d="M 1970 400 L 2078 400 Q 2088 400 2088 410 L 2088 456 Q 2088 466 2078 466 L 1970 466 Q 1960 466 1960 456 L 1960 410 Q 1960 400 1970 400 Z"/></g><g transform="translate(-206,-86) scale(1,1)"><path fill="none" stroke="#000000" d="M 1970 400 L 2078 400 Q 2088 400 2088 410 L 2088 456 Q 2088 466 2078 466 L 1970 466 Q 1960 466 1960 456 L 1960 410 Q 1960 400 1970 400 Z" stroke-miterlimit="10"/></g><g transform="translate(-206,-86) scale(1,1)"><g><path fill="none" stroke="none"/><text fill="#000000" stroke="none" font-family="Arial" font-size="13px" font-style="normal" font-weight="bold" text-decoration="none" x="1988.4150390625" y="419.5">Генериране</text><text fill="#000000" stroke="none" font-family="Arial" font-size="13px" font-style="normal" font-weight="bold" text-decoration="none" x="1996.086181640625" y="432.5">номер на</text><text fill="#000000" stroke="none" font-family="Arial" font-size="13px" font-style="normal" font-weight="bold" text-decoration="none" x="1982.387939453125" y="445.5">резервацията</text></g></g><g transform="translate(-206,-86) scale(1,1)"><path fill="none" stroke="#000000" d="M 2360 314 L 2360 360" stroke-miterlimit="10"/></g><g transform="translate(-206,-86) scale(1,1)"><path fill="none" stroke="#000000" d="M 2355.790482243984 349.83732514237585 L 2360 360 L 2364.209517756016 349.83732514237585" stroke-miterlimit="10"/></g><g transform="translate(-206,-86) scale(1,1)"><path fill="none" stroke="#000000" d="M 2024 365 L 2024 400" stroke-miterlimit="10"/></g><g transform="translate(-206,-86) scale(1,1)"><path fill="none" stroke="#000000" d="M 2019.7904822439841 389.83732514237585 L 2024 400 L 2028.2095177560159 389.83732514237585" stroke-miterlimit="10"/></g><g transform="translate(-206,-86) scale(1,1)"><path fill="#C0C0C0" stroke="none" d="M 1977 495 L 2085 495 Q 2095 495 2095 505 L 2095 538 Q 2095 548 2085 548 L 1977 548 Q 1967 548 1967 538 L 1967 505 Q 1967 495 1977 495 Z" opacity="0.2"/></g><g transform="translate(-206,-86) scale(1,1)"><path fill="#ffffff" stroke="none" d="M 1970 488 L 2078 488 Q 2088 488 2088 498 L 2088 531 Q 2088 541 2078 541 L 1970 541 Q 1960 541 1960 531 L 1960 498 Q 1960 488 1970 488 Z"/></g><g transform="translate(-206,-86) scale(1,1)"><path fill="none" stroke="#000000" d="M 1970 488 L 2078 488 Q 2088 488 2088 498 L 2088 531 Q 2088 541 2078 541 L 1970 541 Q 1960 541 1960 531 L 1960 498 Q 1960 488 1970 488 Z" stroke-miterlimit="10"/></g><g transform="translate(-206,-86) scale(1,1)"><g><path fill="none" stroke="none"/><text fill="#000000" stroke="none" font-family="Arial" font-size="13px" font-style="normal" font-weight="bold" text-decoration="none" x="1971.552490234375" y="507.5">Справка с базата</text><text fill="#000000" stroke="none" font-family="Arial" font-size="13px" font-style="normal" font-weight="bold" text-decoration="none" x="2005.7822265625" y="520.5">данни</text></g></g><g transform="translate(-206,-86) scale(1,1)"><path fill="none" stroke="#000000" d="M 2024 466 L 2024 488" stroke-miterlimit="10"/></g><g transform="translate(-206,-86) scale(1,1)"><path fill="none" stroke="#000000" d="M 2019.7904822439841 477.83732514237585 L 2024 488 L 2028.2095177560159 477.83732514237585" stroke-miterlimit="10"/></g><g transform="translate(-206,-86) scale(1,1)"><path fill="#C0C0C0" stroke="none" d="M 2121 407 L 2198.84814453125 407 Q 2208.84814453125 407 2208.84814453125 417 L 2208.84814453125 463 Q 2208.84814453125 473 2198.84814453125 473 L 2121 473 Q 2111 473 2111 463 L 2111 417 Q 2111 407 2121 407 Z" opacity="0.2"/></g><g transform="translate(-206,-86) scale(1,1)"><path fill="#ffffff" stroke="none" d="M 2114 400 L 2191.84814453125 400 Q 2201.84814453125 400 2201.84814453125 410 L 2201.84814453125 456 Q 2201.84814453125 466 2191.84814453125 466 L 2114 466 Q 2104 466 2104 456 L 2104 410 Q 2104 400 2114 400 Z"/></g><g transform="translate(-206,-86) scale(1,1)"><path fill="none" stroke="#000000" d="M 2114 400 L 2191.84814453125 400 Q 2201.84814453125 400 2201.84814453125 410 L 2201.84814453125 456 Q 2201.84814453125 466 2191.84814453125 466 L 2114 466 Q 2104 466 2104 456 L 2104 410 Q 2104 400 2114 400 Z" stroke-miterlimit="10"/></g><g transform="translate(-206,-86) scale(1,1)"><g><path fill="none" stroke="none"/><text fill="#000000" stroke="none" font-family="Arial" font-size="13px" font-style="normal" font-weight="bold" text-decoration="none" x="2115.55224609375" y="419.5">Определяне</text><text fill="#000000" stroke="none" font-family="Arial" font-size="13px" font-style="normal" font-weight="bold" text-decoration="none" x="2130.1708984375" y="432.5">типа на</text><text fill="#000000" stroke="none" font-family="Arial" font-size="13px" font-style="normal" font-weight="bold" text-decoration="none" x="2111.31201171875" y="445.5">резервацията</text></g></g><g transform="translate(-206,-86) scale(1,1)"><path fill="#C0C0C0" stroke="none" d="M 2121 495 L 2197 495 Q 2207 495 2207 505 L 2207 564 Q 2207 574 2197 574 L 2121 574 Q 2111 574 2111 564 L 2111 505 Q 2111 495 2121 495 Z" opacity="0.2"/></g><g transform="translate(-206,-86) scale(1,1)"><path fill="#ffffff" stroke="none" d="M 2114 488 L 2190 488 Q 2200 488 2200 498 L 2200 557 Q 2200 567 2190 567 L 2114 567 Q 2104 567 2104 557 L 2104 498 Q 2104 488 2114 488 Z"/></g><g transform="translate(-206,-86) scale(1,1)"><path fill="none" stroke="#000000" d="M 2114 488 L 2190 488 Q 2200 488 2200 498 L 2200 557 Q 2200 567 2190 567 L 2114 567 Q 2104 567 2104 557 L 2104 498 Q 2104 488 2114 488 Z" stroke-miterlimit="10"/></g><g transform="translate(-206,-86) scale(1,1)"><g><path fill="none" stroke="none"/><text fill="#000000" stroke="none" font-family="Arial" font-size="13px" font-style="normal" font-weight="bold" text-decoration="none" x="2117.70361328125" y="507.5">Заявка към</text><text fill="#000000" stroke="none" font-family="Arial" font-size="13px" font-style="normal" font-weight="bold" text-decoration="none" x="2123.51171875" y="520.5">базата за</text><text fill="#000000" stroke="none" font-family="Arial" font-size="13px" font-style="normal" font-weight="bold" text-decoration="none" x="2115.62158203125" y="533.5">възможните</text><text fill="#000000" stroke="none" font-family="Arial" font-size="13px" font-style="normal" font-weight="bold" text-decoration="none" x="2131.26220703125" y="546.5">типове</text></g></g><g transform="translate(-206,-86) scale(1,1)"><path fill="#C0C0C0" stroke="none" d="M 2121 599 L 2197 599 Q 2207 599 2207 609 L 2207 642 Q 2207 652 2197 652 L 2121 652 Q 2111 652 2111 642 L 2111 609 Q 2111 599 2121 599 Z" opacity="0.2"/></g><g transform="translate(-206,-86) scale(1,1)"><path fill="#ffffff" stroke="none" d="M 2114 592 L 2190 592 Q 2200 592 2200 602 L 2200 635 Q 2200 645 2190 645 L 2114 645 Q 2104 645 2104 635 L 2104 602 Q 2104 592 2114 592 Z"/></g><g transform="translate(-206,-86) scale(1,1)"><path fill="none" stroke="#000000" d="M 2114 592 L 2190 592 Q 2200 592 2200 602 L 2200 635 Q 2200 645 2190 645 L 2114 645 Q 2104 645 2104 635 L 2104 602 Q 2104 592 2114 592 Z" stroke-miterlimit="10"/></g><g transform="translate(-206,-86) scale(1,1)"><g><path fill="none" stroke="none"/><text fill="#000000" stroke="none" font-family="Arial" font-size="13px" font-style="normal" font-weight="bold" text-decoration="none" x="2113.6220703125" y="611.5">Избиране на</text><text fill="#000000" stroke="none" font-family="Arial" font-size="13px" font-style="normal" font-weight="bold" text-decoration="none" x="2138.25732421875" y="624.5">типа</text></g></g><g transform="translate(-206,-86) scale(1,1)"><path fill="none" stroke="#000000" d="M 2152 365 L 2152 400" stroke-miterlimit="10"/></g><g transform="translate(-206,-86) scale(1,1)"><path fill="none" stroke="#000000" d="M 2147.790482243984 389.83732514237585 L 2152 400 L 2156.209517756016 389.83732514237585" stroke-miterlimit="10"/></g><g transform="translate(-206,-86) scale(1,1)"><path fill="none" stroke="#000000" d="M 2152 466 L 2152 488" stroke-miterlimit="10"/></g><g transform="translate(-206,-86) scale(1,1)"><path fill="none" stroke="#000000" d="M 2147.790482243984 477.83732514237585 L 2152 488 L 2156.209517756016 477.83732514237585" stroke-miterlimit="10"/></g><g transform="translate(-206,-86) scale(1,1)"><path fill="none" stroke="#000000" d="M 2152 567 L 2152 592" stroke-miterlimit="10"/></g><g transform="translate(-206,-86) scale(1,1)"><path fill="none" stroke="#000000" d="M 2147.790482243984 581.8373251423759 L 2152 592 L 2156.209517756016 581.8373251423759" stroke-miterlimit="10"/></g><g transform="translate(-206,-86) scale(1,1)"><path fill="#C0C0C0" stroke="none" d="M 2241 407 L 2325 407 Q 2335 407 2335 417 L 2335 463 Q 2335 473 2325 473 L 2241 473 Q 2231 473 2231 463 L 2231 417 Q 2231 407 2241 407 Z" opacity="0.2"/></g><g transform="translate(-206,-86) scale(1,1)"><path fill="#ffffff" stroke="none" d="M 2234 400 L 2318 400 Q 2328 400 2328 410 L 2328 456 Q 2328 466 2318 466 L 2234 466 Q 2224 466 2224 456 L 2224 410 Q 2224 400 2234 400 Z"/></g><g transform="translate(-206,-86) scale(1,1)"><path fill="none" stroke="#000000" d="M 2234 400 L 2318 400 Q 2328 400 2328 410 L 2328 456 Q 2328 466 2318 466 L 2234 466 Q 2224 466 2224 456 L 2224 410 Q 2224 400 2234 400 Z" stroke-miterlimit="10"/></g><g transform="translate(-206,-86) scale(1,1)"><g><path fill="none" stroke="none"/><text fill="#000000" stroke="none" font-family="Arial" font-size="13px" font-style="normal" font-weight="bold" text-decoration="none" x="2238.628173828125" y="419.5">Определяне</text><text fill="#000000" stroke="none" font-family="Arial" font-size="13px" font-style="normal" font-weight="bold" text-decoration="none" x="2244.845703125" y="432.5">на типа за</text><text fill="#000000" stroke="none" font-family="Arial" font-size="13px" font-style="normal" font-weight="bold" text-decoration="none" x="2234.622802734375" y="445.5">прекратяване</text></g></g><g transform="translate(-206,-86) scale(1,1)"><path fill="#C0C0C0" stroke="none" d="M 2369 407 L 2470.47412109375 407 Q 2480.47412109375 407 2480.47412109375 417 L 2480.47412109375 461 Q 2480.47412109375 471 2470.47412109375 471 L 2369 471 Q 2359 471 2359 461 L 2359 417 Q 2359 407 2369 407 Z" opacity="0.2"/></g><g transform="translate(-206,-86) scale(1,1)"><path fill="#ffffff" stroke="none" d="M 2362 400 L 2463.47412109375 400 Q 2473.47412109375 400 2473.47412109375 410 L 2473.47412109375 454 Q 2473.47412109375 464 2463.47412109375 464 L 2362 464 Q 2352 464 2352 454 L 2352 410 Q 2352 400 2362 400 Z"/></g><g transform="translate(-206,-86) scale(1,1)"><path fill="none" stroke="#000000" d="M 2362 400 L 2463.47412109375 400 Q 2473.47412109375 400 2473.47412109375 410 L 2473.47412109375 454 Q 2473.47412109375 464 2463.47412109375 464 L 2362 464 Q 2352 464 2352 454 L 2352 410 Q 2352 400 2362 400 Z" stroke-miterlimit="10"/></g><g transform="translate(-206,-86) scale(1,1)"><g><path fill="none" stroke="none"/><text fill="#000000" stroke="none" font-family="Arial" font-size="13px" font-style="normal" font-weight="bold" text-decoration="none" x="2359.264404296875" y="419.5">Избиране на стая</text></g></g><g transform="translate(-206,-86) scale(1,1)"><path fill="#C0C0C0" stroke="none" d="M 2369 495 L 2469 495 Q 2479 495 2479 505 L 2479 549 Q 2479 559 2469 559 L 2369 559 Q 2359 559 2359 549 L 2359 505 Q 2359 495 2369 495 Z" opacity="0.2"/></g><g transform="translate(-206,-86) scale(1,1)"><path fill="#ffffff" stroke="none" d="M 2362 488 L 2462 488 Q 2472 488 2472 498 L 2472 542 Q 2472 552 2462 552 L 2362 552 Q 2352 552 2352 542 L 2352 498 Q 2352 488 2362 488 Z"/></g><g transform="translate(-206,-86) scale(1,1)"><path fill="none" stroke="#000000" d="M 2362 488 L 2462 488 Q 2472 488 2472 498 L 2472 542 Q 2472 552 2462 552 L 2362 552 Q 2352 552 2352 542 L 2352 498 Q 2352 488 2362 488 Z" stroke-miterlimit="10"/></g><g transform="translate(-206,-86) scale(1,1)"><g><path fill="none" stroke="none"/><text fill="#000000" stroke="none" font-family="Arial" font-size="13px" font-style="normal" font-weight="bold" text-decoration="none" x="2365.61767578125" y="507.5">Определяне на</text><text fill="#000000" stroke="none" font-family="Arial" font-size="13px" font-style="normal" font-weight="bold" text-decoration="none" x="2382.41357421875" y="520.5">категория</text></g></g><g transform="translate(-206,-86) scale(1,1)"><path fill="#C0C0C0" stroke="none" d="M 2369 599 L 2469 599 Q 2479 599 2479 609 L 2479 655 Q 2479 665 2469 665 L 2369 665 Q 2359 665 2359 655 L 2359 609 Q 2359 599 2369 599 Z" opacity="0.2"/></g><g transform="translate(-206,-86) scale(1,1)"><path fill="#ffffff" stroke="none" d="M 2362 592 L 2462 592 Q 2472 592 2472 602 L 2472 648 Q 2472 658 2462 658 L 2362 658 Q 2352 658 2352 648 L 2352 602 Q 2352 592 2362 592 Z"/></g><g transform="translate(-206,-86) scale(1,1)"><path fill="none" stroke="#000000" d="M 2362 592 L 2462 592 Q 2472 592 2472 602 L 2472 648 Q 2472 658 2462 658 L 2362 658 Q 2352 658 2352 648 L 2352 602 Q 2352 592 2362 592 Z" stroke-miterlimit="10"/></g><g transform="translate(-206,-86) scale(1,1)"><g><path fill="none" stroke="none"/><text fill="#000000" stroke="none" font-family="Arial" font-size="13px" font-style="normal" font-weight="bold" text-decoration="none" x="2378.100341796875" y="611.5">Справка за</text><text fill="#000000" stroke="none" font-family="Arial" font-size="13px" font-style="normal" font-weight="bold" text-decoration="none" x="2365.154296875" y="624.5">заетост на стая</text></g></g><g transform="translate(-206,-86) scale(1,1)"><path fill="none" stroke="#000000" d="M 2276 365 L 2276 400" stroke-miterlimit="10"/></g><g transform="translate(-206,-86) scale(1,1)"><path fill="none" stroke="#000000" d="M 2271.790482243984 389.83732514237585 L 2276 400 L 2280.209517756016 389.83732514237585" stroke-miterlimit="10"/></g><g transform="translate(-206,-86) scale(1,1)"><path fill="none" stroke="#000000" d="M 2408 365 L 2408 400" stroke-miterlimit="10"/></g><g transform="translate(-206,-86) scale(1,1)"><path fill="none" stroke="#000000" d="M 2403.790482243984 389.83732514237585 L 2408 400 L 2412.209517756016 389.83732514237585" stroke-miterlimit="10"/></g><g transform="translate(-206,-86) scale(1,1)"><path fill="none" stroke="#000000" d="M 2412 464 L 2412 488" stroke-miterlimit="10"/></g><g transform="translate(-206,-86) scale(1,1)"><path fill="none" stroke="#000000" d="M 2407.790482243984 477.83732514237585 L 2412 488 L 2416.209517756016 477.83732514237585" stroke-miterlimit="10"/></g><g transform="translate(-206,-86) scale(1,1)"><path fill="none" stroke="#000000" d="M 2412 552 L 2412 592" stroke-miterlimit="10"/></g><g transform="translate(-206,-86) scale(1,1)"><path fill="none" stroke="#000000" d="M 2407.790482243984 581.8373251423759 L 2412 592 L 2416.209517756016 581.8373251423759" stroke-miterlimit="10"/></g><g transform="translate(-206,-86) scale(1,1)"><path fill="#C0C0C0" stroke="none" d="M 2521 407 L 2613 407 Q 2623 407 2623 417 L 2623 463 Q 2623 473 2613 473 L 2521 473 Q 2511 473 2511 463 L 2511 417 Q 2511 407 2521 407 Z" opacity="0.2"/></g><g transform="translate(-206,-86) scale(1,1)"><path fill="#ffffff" stroke="none" d="M 2514 400 L 2606 400 Q 2616 400 2616 410 L 2616 456 Q 2616 466 2606 466 L 2514 466 Q 2504 466 2504 456 L 2504 410 Q 2504 400 2514 400 Z"/></g><g transform="translate(-206,-86) scale(1,1)"><path fill="none" stroke="#000000" d="M 2514 400 L 2606 400 Q 2616 400 2616 410 L 2616 456 Q 2616 466 2606 466 L 2514 466 Q 2504 466 2504 456 L 2504 410 Q 2504 400 2514 400 Z" stroke-miterlimit="10"/></g><g transform="translate(-206,-86) scale(1,1)"><g><path fill="none" stroke="none"/><text fill="#000000" stroke="none" font-family="Arial" font-size="13px" font-style="normal" font-weight="bold" text-decoration="none" x="2518.3212890625" y="419.5">Посочване на</text><text fill="#000000" stroke="none" font-family="Arial" font-size="13px" font-style="normal" font-weight="bold" text-decoration="none" x="2533.56201171875" y="432.5">метод за</text><text fill="#000000" stroke="none" font-family="Arial" font-size="13px" font-style="normal" font-weight="bold" text-decoration="none" x="2532.905029296875" y="445.5">плащане</text></g></g><g transform="translate(-206,-86) scale(1,1)"><path fill="#C0C0C0" stroke="none" d="M 2649 407 L 2765 407 Q 2775 407 2775 417 L 2775 463 Q 2775 473 2765 473 L 2649 473 Q 2639 473 2639 463 L 2639 417 Q 2639 407 2649 407 Z" opacity="0.2"/></g><g transform="translate(-206,-86) scale(1,1)"><path fill="#ffffff" stroke="none" d="M 2642 400 L 2758 400 Q 2768 400 2768 410 L 2768 456 Q 2768 466 2758 466 L 2642 466 Q 2632 466 2632 456 L 2632 410 Q 2632 400 2642 400 Z"/></g><g transform="translate(-206,-86) scale(1,1)"><path fill="none" stroke="#000000" d="M 2642 400 L 2758 400 Q 2768 400 2768 410 L 2768 456 Q 2768 466 2758 466 L 2642 466 Q 2632 466 2632 456 L 2632 410 Q 2632 400 2642 400 Z" stroke-miterlimit="10"/></g><g transform="translate(-206,-86) scale(1,1)"><g><path fill="none" stroke="none"/><text fill="#000000" stroke="none" font-family="Arial" font-size="13px" font-style="normal" font-weight="bold" text-decoration="none" x="2647.94921875" y="419.5">Предоставяне на</text><text fill="#000000" stroke="none" font-family="Arial" font-size="13px" font-style="normal" font-weight="bold" text-decoration="none" x="2656.680419921875" y="432.5">допълнителни</text><text fill="#000000" stroke="none" font-family="Arial" font-size="13px" font-style="normal" font-weight="bold" text-decoration="none" x="2680.528564453125" y="445.5">услуги</text></g></g><g transform="translate(-206,-86) scale(1,1)"><path fill="none" stroke="#000000" d="M 2696 365 L 2696 400" stroke-miterlimit="10"/></g><g transform="translate(-206,-86) scale(1,1)"><path fill="none" stroke="#000000" d="M 2691.790482243984 389.83732514237585 L 2696 400 L 2700.209517756016 389.83732514237585" stroke-miterlimit="10"/></g><g transform="translate(-206,-86) scale(1,1)"><path fill="none" stroke="#000000" d="M 2560 365 L 2560 400" stroke-miterlimit="10"/></g><g transform="translate(-206,-86) scale(1,1)"><path fill="none" stroke="#000000" d="M 2555.790482243984 389.83732514237585 L 2560 400 L 2564.209517756016 389.83732514237585" stroke-miterlimit="10"/></g><g transform="translate(-206,-86) scale(1,1)"><path fill="#C0C0C0" stroke="none" d="M 1954 695 L 2779 695 Q 2782 695 2782 698 L 2782 697 Q 2782 700 2779 700 L 1954 700 Q 1951 700 1951 697 L 1951 698 Q 1951 695 1954 695 Z" opacity="0.2"/></g><g transform="translate(-206,-86) scale(1,1)"><path fill="#000000" stroke="none" d="M 1947 688 L 2772 688 Q 2775 688 2775 691 L 2775 691 Q 2775 694 2772 694 L 1947 694 Q 1944 694 1944 691 L 1944 691 Q 1944 688 1947 688 Z"/></g><g transform="translate(-206,-86) scale(1,1)"><path fill="none" stroke="#000000" d="M 2024 541 L 2024 688" stroke-miterlimit="10"/></g><g transform="translate(-206,-86) scale(1,1)"><path fill="none" stroke="#000000" d="M 2019.7904822439841 677.8373251423759 L 2024 688 L 2028.2095177560159 677.8373251423759" stroke-miterlimit="10"/></g><g transform="translate(-206,-86) scale(1,1)"><path fill="none" stroke="#000000" d="M 2152 645 L 2152 688" stroke-miterlimit="10"/></g><g transform="translate(-206,-86) scale(1,1)"><path fill="none" stroke="#000000" d="M 2147.790482243984 677.8373251423759 L 2152 688 L 2156.209517756016 677.8373251423759" stroke-miterlimit="10"/></g><g transform="translate(-206,-86) scale(1,1)"><path fill="none" stroke="#000000" d="M 2280 466 L 2280 688" stroke-miterlimit="10"/></g><g transform="translate(-206,-86) scale(1,1)"><path fill="none" stroke="#000000" d="M 2275.790482243984 677.8373251423759 L 2280 688 L 2284.209517756016 677.8373251423759" stroke-miterlimit="10"/></g><g transform="translate(-206,-86) scale(1,1)"><path fill="none" stroke="#000000" d="M 2416 658 L 2416 688" stroke-miterlimit="10"/></g><g transform="translate(-206,-86) scale(1,1)"><path fill="none" stroke="#000000" d="M 2411.790482243984 677.8373251423759 L 2416 688 L 2420.209517756016 677.8373251423759" stroke-miterlimit="10"/></g><g transform="translate(-206,-86) scale(1,1)"><path fill="none" stroke="#000000" d="M 2560 466 L 2560 688" stroke-miterlimit="10"/></g><g transform="translate(-206,-86) scale(1,1)"><path fill="none" stroke="#000000" d="M 2555.790482243984 677.8373251423759 L 2560 688 L 2564.209517756016 677.8373251423759" stroke-miterlimit="10"/></g><g transform="translate(-206,-86) scale(1,1)"><path fill="none" stroke="#000000" d="M 2359 693 L 2359 744" stroke-miterlimit="10"/></g><g transform="translate(-206,-86) scale(1,1)"><path fill="none" stroke="#000000" d="M 2354.790482243984 733.8373251423759 L 2359 744 L 2363.209517756016 733.8373251423759" stroke-miterlimit="10"/></g><g transform="translate(-206,-86) scale(1,1)"><path fill="none" stroke="#000000" d="M 2384 768 L 2800 768 L 2800 281 L 2424 281" stroke-miterlimit="10"/></g><g transform="translate(-206,-86) scale(1,1)"><path fill="none" stroke="#000000" d="M 2434.162674857624 276.790482243984 L 2424 281 L 2434.162674857624 285.209517756016" stroke-miterlimit="10"/></g><g transform="translate(-206,-86) scale(1,1)"><path fill="none" stroke="#000000" d="M 1358 482 L 1358 536 L 1424 536 L 1424 560" stroke-miterlimit="10"/></g><g transform="translate(-206,-86) scale(1,1)"><path fill="none" stroke="#000000" d="M 1419.7904822439841 549.8373251423759 L 1424 560 L 1428.2095177560159 549.8373251423759" stroke-miterlimit="10"/></g><g transform="translate(-206,-86) scale(1,1)"><path fill="#C0C0C0" stroke="none" d="M 1609 423 L 1700 423 Q 1710 423 1710 433 L 1710 476 Q 1710 486 1700 486 L 1609 486 Q 1599 486 1599 476 L 1599 433 Q 1599 423 1609 423 Z" opacity="0.2"/></g><g transform="translate(-206,-86) scale(1,1)"><path fill="#ffffff" stroke="none" d="M 1602 416 L 1693 416 Q 1703 416 1703 426 L 1703 469 Q 1703 479 1693 479 L 1602 479 Q 1592 479 1592 469 L 1592 426 Q 1592 416 1602 416 Z"/></g><g transform="translate(-206,-86) scale(1,1)"><path fill="none" stroke="#000000" d="M 1602 416 L 1693 416 Q 1703 416 1703 426 L 1703 469 Q 1703 479 1693 479 L 1602 479 Q 1592 479 1592 469 L 1592 426 Q 1592 416 1602 416 Z" stroke-miterlimit="10"/></g><g transform="translate(-206,-86) scale(1,1)"><g><path fill="none" stroke="none"/><text fill="#000000" stroke="none" font-family="Arial" font-size="13px" font-style="normal" font-weight="bold" text-decoration="none" x="1622.12841796875" y="435.5">Справки</text></g></g><g transform="translate(-206,-86) scale(1,1)"><path fill="none" stroke="#000000" d="M 1656 373 L 1656 416" stroke-miterlimit="10"/></g><g transform="translate(-206,-86) scale(1,1)"><path fill="none" stroke="#000000" d="M 1651.7904822439841 405.83732514237585 L 1656 416 L 1660.2095177560159 405.83732514237585" stroke-miterlimit="10"/></g><g transform="translate(-206,-86) scale(1,1)"><path fill="none" stroke="#000000" d="M 1656 479 L 1656 560" stroke-miterlimit="10"/></g><g transform="translate(-206,-86) scale(1,1)"><path fill="none" stroke="#000000" d="M 1651.7904822439841 549.8373251423759 L 1656 560 L 1660.2095177560159 549.8373251423759" stroke-miterlimit="10"/></g><g transform="translate(-206,-86) scale(1,1)"><path fill="#C0C0C0" stroke="none" d="M 353 519 L 453 519 Q 463 519 463 529 L 463 575 Q 463 585 453 585 L 353 585 Q 343 585 343 575 L 343 529 Q 343 519 353 519 Z" opacity="0.2"/></g><g transform="translate(-206,-86) scale(1,1)"><path fill="#ffffff" stroke="none" d="M 346 512 L 446 512 Q 456 512 456 522 L 456 568 Q 456 578 446 578 L 346 578 Q 336 578 336 568 L 336 522 Q 336 512 346 512 Z"/></g><g transform="translate(-206,-86) scale(1,1)"><path fill="none" stroke="#000000" d="M 346 512 L 446 512 Q 456 512 456 522 L 456 568 Q 456 578 446 578 L 346 578 Q 336 578 336 568 L 336 522 Q 336 512 346 512 Z" stroke-miterlimit="10"/></g><g transform="translate(-206,-86) scale(1,1)"><g><path fill="none" stroke="none"/><text fill="#000000" stroke="none" font-family="Arial" font-size="13px" font-style="normal" font-weight="bold" text-decoration="none" x="353.3310546875" y="531.5">Зареждане на</text><text fill="#000000" stroke="none" font-family="Arial" font-size="13px" font-style="normal" font-weight="bold" text-decoration="none" x="356.444580078125" y="544.5">формуляр за</text><text fill="#000000" stroke="none" font-family="Arial" font-size="13px" font-style="normal" font-weight="bold" text-decoration="none" x="358.437744140625" y="557.5">регистрация</text></g></g><g transform="translate(-206,-86) scale(1,1)"><path fill="none" stroke="#000000" d="M 397 480 L 397 512" stroke-miterlimit="10"/></g><g transform="translate(-206,-86) scale(1,1)"><path fill="none" stroke="#000000" d="M 392.790482243984 501.83732514237585 L 397 512 L 401.209517756016 501.83732514237585" stroke-miterlimit="10"/></g><g transform="translate(-206,-86) scale(1,1)"><path fill="#C0C0C0" stroke="none" d="M 375 743.5 L 403.5 719 L 431 743.5 L 403.5 767 L 375 743.5" opacity="0.2"/></g><g transform="translate(-206,-86) scale(1,1)"><path fill="#ffffff" stroke="none" d="M 368 736 L 396 712 L 424 736 L 396 760 L 368 736"/></g><g transform="translate(-206,-86) scale(1,1)"><path fill="none" stroke="#000000" d="M 368 736 L 396 712 L 424 736 L 396 760 L 368 736 L 368 736" stroke-miterlimit="10"/></g><g transform="translate(-206,-86) scale(1,1)"><path fill="none" stroke="#000000" d="M 396 578 L 396 624" stroke-miterlimit="10"/></g><g transform="translate(-206,-86) scale(1,1)"><path fill="none" stroke="#000000" d="M 391.790482243984 613.8373251423759 L 396 624 L 400.209517756016 613.8373251423759" stroke-miterlimit="10"/></g><g transform="translate(-206,-86) scale(1,1)"><path fill="none" stroke="#000000" d="M 398 760 L 398 816" stroke-miterlimit="10"/></g><g transform="translate(-206,-86) scale(1,1)"><path fill="none" stroke="#000000" d="M 393.790482243984 805.8373251423759 L 398 816 L 402.209517756016 805.8373251423759" stroke-miterlimit="10"/></g><g transform="translate(-206,-86) scale(1,1)"><path fill="#5aadd7" stroke="none" d="M 216 648 L 301 648 L 311 658 L 311 703 L 216 703 L 216 648"/></g><g transform="translate(-206,-86) scale(1,1)"><path fill="none" stroke="#000000" d="M 216 648 L 301 648 L 311 658 L 311 703 L 216 703 L 216 648 L 216 648" stroke-miterlimit="10"/></g><g transform="translate(-206,-86) scale(1,1)"><path fill="none" stroke="#000000" d="M 301 648 L 301 658 L 311 658 L 301 648" stroke-miterlimit="10"/></g><g transform="translate(-206,-86) scale(1,1)"><g><path fill="none" stroke="none"/><text fill="#ffffff" stroke="none" font-family="Arial" font-size="15px" font-style="normal" font-weight="normal" text-decoration="none" x="221" y="668">Лични</text><text fill="#ffffff" stroke="none" font-family="Arial" font-size="15px" font-style="normal" font-weight="normal" text-decoration="none" x="221" y="683">данни на</text><text fill="#ffffff" stroke="none" font-family="Arial" font-size="15px" font-style="normal" font-weight="normal" text-decoration="none" x="221" y="698">клиента.</text></g></g><g transform="translate(-206,-86) scale(1,1)"><path fill="#C0C0C0" stroke="none" d="M 353 631 L 452 631 Q 462 631 462 641 L 462 661 Q 462 671 452 671 L 353 671 Q 343 671 343 661 L 343 641 Q 343 631 353 631 Z" opacity="0.2"/></g><g transform="translate(-206,-86) scale(1,1)"><path fill="#ffffff" stroke="none" d="M 346 624 L 445 624 Q 455 624 455 634 L 455 654 Q 455 664 445 664 L 346 664 Q 336 664 336 654 L 336 634 Q 336 624 346 624 Z"/></g><g transform="translate(-206,-86) scale(1,1)"><path fill="none" stroke="#000000" d="M 346 624 L 445 624 Q 455 624 455 634 L 455 654 Q 455 664 445 664 L 346 664 Q 336 664 336 654 L 336 634 Q 336 624 346 624 Z" stroke-miterlimit="10"/></g><g transform="translate(-206,-86) scale(1,1)"><g><path fill="none" stroke="none"/><text fill="#000000" stroke="none" font-family="Arial" font-size="13px" font-style="normal" font-weight="bold" text-decoration="none" x="361.219482421875" y="643.5">Въвеждане</text></g></g><g transform="translate(-206,-86) scale(1,1)"><path fill="none" stroke="#000000" d="M 395 664 L 395 712" stroke-miterlimit="10"/></g><g transform="translate(-206,-86) scale(1,1)"><path fill="none" stroke="#000000" d="M 390.790482243984 701.8373251423759 L 395 712 L 399.209517756016 701.8373251423759" stroke-miterlimit="10"/></g><g transform="translate(-206,-86) scale(1,1)"><path fill="none" stroke="#000000" d="M 424 736 L 528 736 L 528 648 L 455 648" stroke-miterlimit="10"/></g><g transform="translate(-206,-86) scale(1,1)"><path fill="none" stroke="#000000" d="M 465.16267485762415 643.790482243984 L 455 648 L 465.16267485762415 652.209517756016" stroke-miterlimit="10"/></g><g transform="translate(-206,-86) scale(1,1)"><path fill="#5aadd7" stroke="none" d="M 224 744 L 309.666015625 744 L 319.666015625 754 L 319.666015625 791 L 224 791 L 224 744"/></g><g transform="translate(-206,-86) scale(1,1)"><path fill="none" stroke="#000000" d="M 224 744 L 309.666015625 744 L 319.666015625 754 L 319.666015625 791 L 224 791 L 224 744 L 224 744" stroke-miterlimit="10"/></g><g transform="translate(-206,-86) scale(1,1)"><path fill="none" stroke="#000000" d="M 309.666015625 744 L 309.666015625 754 L 319.666015625 754 L 309.666015625 744" stroke-miterlimit="10"/></g><g transform="translate(-206,-86) scale(1,1)"><g><path fill="none" stroke="none"/><text fill="#ffffff" stroke="none" font-family="Arial" font-size="15px" font-style="normal" font-weight="normal" text-decoration="none" x="229" y="764">Валидация</text><text fill="#ffffff" stroke="none" font-family="Arial" font-size="15px" font-style="normal" font-weight="normal" text-decoration="none" x="229" y="779">на  данни.</text></g></g><g transform="translate(-206,-86) scale(1,1)"><path fill="none" stroke="#000000" d="M 313 664 L 335 659" stroke-miterlimit="10" stroke-dasharray="3"/></g><g transform="translate(-206,-86) scale(1,1)"><path fill="none" stroke="#000000" d="M 322 755 L 367 743" stroke-miterlimit="10" stroke-dasharray="3"/></g><g transform="translate(-206,-86) scale(1,1)"><g><path fill="none" stroke="none"/><text fill="#a90a0a" stroke="none" font-family="Arial" font-size="13px" font-style="normal" font-weight="normal" text-decoration="none" x="429" y="722">невалидни</text></g></g><g transform="translate(-206,-86) scale(1,1)"><g><path fill="none" stroke="none"/><text fill="#006231" stroke="none" font-family="Arial" font-size="13px" font-style="normal" font-weight="normal" text-decoration="none" x="413" y="786">валидни</text></g></g><g transform="translate(-206,-86) scale(1,1)"><path fill="#C0C0C0" stroke="none" d="M 361 823 L 461 823 Q 471 823 471 833 L 471 853 Q 471 863 461 863 L 361 863 Q 351 863 351 853 L 351 833 Q 351 823 361 823 Z" opacity="0.2"/></g><g transform="translate(-206,-86) scale(1,1)"><path fill="#ffffff" stroke="none" d="M 354 816 L 454 816 Q 464 816 464 826 L 464 846 Q 464 856 454 856 L 354 856 Q 344 856 344 846 L 344 826 Q 344 816 354 816 Z"/></g><g transform="translate(-206,-86) scale(1,1)"><path fill="none" stroke="#000000" d="M 354 816 L 454 816 Q 464 816 464 826 L 464 846 Q 464 856 454 856 L 354 856 Q 344 856 344 846 L 344 826 Q 344 816 354 816 Z" stroke-miterlimit="10"/></g><g transform="translate(-206,-86) scale(1,1)"><g><path fill="none" stroke="none"/><text fill="#000000" stroke="none" font-family="Arial" font-size="13px" font-style="normal" font-weight="bold" text-decoration="none" x="371.287353515625" y="835.5">зареждане</text></g></g><g transform="translate(-206,-86) scale(1,1)"><path fill="none" stroke="#000000" d="M 400 856 L 400 896" stroke-miterlimit="10"/></g><g transform="translate(-206,-86) scale(1,1)"><path fill="none" stroke="#000000" d="M 395.790482243984 885.8373251423759 L 400 896 L 404.209517756016 885.8373251423759" stroke-miterlimit="10"/></g><g transform="translate(-206,-86) scale(1,1)"><path fill="#C0C0C0" stroke="none" d="M 2649 511 L 2765 511 Q 2775 511 2775 521 L 2775 554 Q 2775 564 2765 564 L 2649 564 Q 2639 564 2639 554 L 2639 521 Q 2639 511 2649 511 Z" opacity="0.2"/></g><g transform="translate(-206,-86) scale(1,1)"><path fill="#ffffff" stroke="none" d="M 2642 504 L 2758 504 Q 2768 504 2768 514 L 2768 547 Q 2768 557 2758 557 L 2642 557 Q 2632 557 2632 547 L 2632 514 Q 2632 504 2642 504 Z"/></g><g transform="translate(-206,-86) scale(1,1)"><path fill="none" stroke="#000000" d="M 2642 504 L 2758 504 Q 2768 504 2768 514 L 2768 547 Q 2768 557 2758 557 L 2642 557 Q 2632 557 2632 547 L 2632 514 Q 2632 504 2642 504 Z" stroke-miterlimit="10"/></g><g transform="translate(-206,-86) scale(1,1)"><g><path fill="none" stroke="none"/><text fill="#000000" stroke="none" font-family="Arial" font-size="13px" font-style="normal" font-weight="bold" text-decoration="none" x="2649.45361328125" y="523.5">Рейтинговане на</text><text fill="#000000" stroke="none" font-family="Arial" font-size="13px" font-style="normal" font-weight="bold" text-decoration="none" x="2675.84716796875" y="536.5">клиенти</text></g></g><g transform="translate(-206,-86) scale(1,1)"><path fill="#C0C0C0" stroke="none" d="M 2649 599 L 2765 599 Q 2775 599 2775 609 L 2775 645 Q 2775 655 2765 655 L 2649 655 Q 2639 655 2639 645 L 2639 609 Q 2639 599 2649 599 Z" opacity="0.2"/></g><g transform="translate(-206,-86) scale(1,1)"><path fill="#ffffff" stroke="none" d="M 2642 592 L 2758 592 Q 2768 592 2768 602 L 2768 638 Q 2768 648 2758 648 L 2642 648 Q 2632 648 2632 638 L 2632 602 Q 2632 592 2642 592 Z"/></g><g transform="translate(-206,-86) scale(1,1)"><path fill="none" stroke="#000000" d="M 2642 592 L 2758 592 Q 2768 592 2768 602 L 2768 638 Q 2768 648 2758 648 L 2642 648 Q 2632 648 2632 638 L 2632 602 Q 2632 592 2642 592 Z" stroke-miterlimit="10"/></g><g transform="translate(-206,-86) scale(1,1)"><g><path fill="none" stroke="none"/><text fill="#000000" stroke="none" font-family="Arial" font-size="13px" font-style="normal" font-weight="bold" text-decoration="none" x="2642.785400390625" y="611.5">Определяне метод</text><text fill="#000000" stroke="none" font-family="Arial" font-size="13px" font-style="normal" font-weight="bold" text-decoration="none" x="2664.50390625" y="624.5">за плащане</text></g></g><g transform="translate(-206,-86) scale(1,1)"><path fill="none" stroke="#000000" d="M 2700 466 L 2700 504" stroke-miterlimit="10"/></g><g transform="translate(-206,-86) scale(1,1)"><path fill="none" stroke="#000000" d="M 2695.790482243984 493.83732514237585 L 2700 504 L 2704.209517756016 493.83732514237585" stroke-miterlimit="10"/></g><g transform="translate(-206,-86) scale(1,1)"><path fill="none" stroke="#000000" d="M 2700 557 L 2700 592" stroke-miterlimit="10"/></g><g transform="translate(-206,-86) scale(1,1)"><path fill="none" stroke="#000000" d="M 2695.790482243984 581.8373251423759 L 2700 592 L 2704.209517756016 581.8373251423759" stroke-miterlimit="10"/></g><g transform="translate(-206,-86) scale(1,1)"><path fill="none" stroke="#000000" d="M 2700 648 L 2700 688" stroke-miterlimit="10"/></g><g transform="translate(-206,-86) scale(1,1)"><path fill="none" stroke="#000000" d="M 2695.790482243984 677.8373251423759 L 2700 688 L 2704.209517756016 677.8373251423759" stroke-miterlimit="10"/></g><g transform="translate(-206,-86) scale(1,1)"><path fill="#5aadd7" stroke="none" d="M 2648 296 L 2737.328125 296 L 2747.328125 306 L 2747.328125 351 L 2648 351 L 2648 296"/></g><g transform="translate(-206,-86) scale(1,1)"><path fill="none" stroke="#000000" d="M 2648 296 L 2737.328125 296 L 2747.328125 306 L 2747.328125 351 L 2648 351 L 2648 296 L 2648 296" stroke-miterlimit="10"/></g><g transform="translate(-206,-86) scale(1,1)"><path fill="none" stroke="#000000" d="M 2737.328125 296 L 2737.328125 306 L 2747.328125 306 L 2737.328125 296" stroke-miterlimit="10"/></g><g transform="translate(-206,-86) scale(1,1)"><g><path fill="none" stroke="none"/><text fill="#ffffff" stroke="none" font-family="Arial" font-size="15px" font-style="normal" font-weight="normal" text-decoration="none" x="2653" y="316">Пример:</text><text fill="#ffffff" stroke="none" font-family="Arial" font-size="15px" font-style="normal" font-weight="normal" text-decoration="none" x="2653" y="331">сезонни</text><text fill="#ffffff" stroke="none" font-family="Arial" font-size="15px" font-style="normal" font-weight="normal" text-decoration="none" x="2653" y="346">намаления.</text></g></g><g transform="translate(-206,-86) scale(1,1)"><path fill="none" stroke="#000000" d="M 2748 328 L 2784 328 L 2784 440 L 2768 440" stroke-miterlimit="10" stroke-dasharray="3"/></g></g></svg>